<svg width="10" height="10" viewBox="0 0 10 10" fill="none" xmlns="http://www.w3.org/2000/svg">
<circle cx="5" cy="5" r="5" fill="#7F7F7F"/>
<path d="M4.8 2.8002C4.58 2.8002 4.3916 2.7218 4.2348 2.565C4.078 2.4082 3.99973 2.21993 4 2.0002C4 1.7802 4.0784 1.5918 4.2352 1.435C4.392 1.2782 4.58027 1.19993 4.8 1.2002C5.02 1.2002 5.2084 1.2786 5.3652 1.4354C5.522 1.5922 5.60027 1.78046 5.6 2.0002C5.6 2.2202 5.5216 2.4086 5.3648 2.5654C5.208 2.7222 5.01973 2.80046 4.8 2.8002ZM4.2 8.4002V3.6002H5.4V8.4002H4.2Z" fill="#D9D9D9"/>
</svg>
