<svg width="19" height="20" viewBox="0 0 19 20" fill="none" xmlns="http://www.w3.org/2000/svg">
<g id="vuesax/linear/data">
<g id="data">
<path id="Vector" d="M15.8787 11.7887C16.7394 11.7887 17.437 11.0911 17.437 10.2304C17.437 9.3698 16.7394 8.67212 15.8787 8.67212C15.0181 8.67212 14.3204 9.3698 14.3204 10.2304C14.3204 11.0911 15.0181 11.7887 15.8787 11.7887Z" stroke="#89B37E" stroke-width="1.16873" stroke-linecap="round" stroke-linejoin="round"/>
<path id="Vector_2" d="M15.8787 5.55533C16.7394 5.55533 17.437 4.85766 17.437 3.99703C17.437 3.1364 16.7394 2.43872 15.8787 2.43872C15.0181 2.43872 14.3204 3.1364 14.3204 3.99703C14.3204 4.85766 15.0181 5.55533 15.8787 5.55533Z" stroke="#89B37E" stroke-width="1.16873" stroke-linecap="round" stroke-linejoin="round"/>
<path id="Vector_3" d="M15.8787 18.0216C16.7394 18.0216 17.437 17.324 17.437 16.4633C17.437 15.6027 16.7394 14.905 15.8787 14.905C15.0181 14.905 14.3204 15.6027 14.3204 16.4633C14.3204 17.324 15.0181 18.0216 15.8787 18.0216Z" stroke="#89B37E" stroke-width="1.16873" stroke-linecap="round" stroke-linejoin="round"/>
<path id="Vector_4" d="M3.41219 11.7887C4.27282 11.7887 4.9705 11.0911 4.9705 10.2304C4.9705 9.3698 4.27282 8.67212 3.41219 8.67212C2.55156 8.67212 1.85388 9.3698 1.85388 10.2304C1.85388 11.0911 2.55156 11.7887 3.41219 11.7887Z" stroke="#89B37E" stroke-width="1.16873" stroke-linecap="round" stroke-linejoin="round"/>
<path id="Vector_5" d="M4.97034 10.2302H14.3202" stroke="#89B37E" stroke-width="1.16873" stroke-linecap="round" stroke-linejoin="round"/>
<path id="Vector_6" d="M14.3206 3.99707H11.204C9.64567 3.99707 8.86652 4.77622 8.86652 6.33453V14.1261C8.86652 15.6844 9.64567 16.4635 11.204 16.4635H14.3206" stroke="#89B37E" stroke-width="1.16873" stroke-linecap="round" stroke-linejoin="round"/>
</g>
</g>
</svg>
