<svg width="19" height="20" viewBox="0 0 19 20" fill="none" xmlns="http://www.w3.org/2000/svg">
<g id="vuesax/linear/global">
<g id="global">
<path id="Vector" d="M9.36185 18.1124C13.665 18.1124 17.1534 14.624 17.1534 10.3208C17.1534 6.01769 13.665 2.5293 9.36185 2.5293C5.0587 2.5293 1.57031 6.01769 1.57031 10.3208C1.57031 14.624 5.0587 18.1124 9.36185 18.1124Z" stroke="#DDAD9C" stroke-width="1.16873" stroke-linecap="round" stroke-linejoin="round"/>
<path id="Vector_2" d="M6.25098 3.30762H7.03014C5.51079 7.85787 5.51079 12.7821 7.03014 17.3324H6.25098" stroke="#DDAD9C" stroke-width="1.16873" stroke-linecap="round" stroke-linejoin="round"/>
<path id="Vector_3" d="M11.7031 3.30762C13.2225 7.85787 13.2225 12.7821 11.7031 17.3324" stroke="#DDAD9C" stroke-width="1.16873" stroke-linecap="round" stroke-linejoin="round"/>
<path id="Vector_4" d="M2.35156 13.4374V12.6582C6.90182 14.1776 11.8261 14.1776 16.3763 12.6582V13.4374" stroke="#DDAD9C" stroke-width="1.16873" stroke-linecap="round" stroke-linejoin="round"/>
<path id="Vector_5" d="M2.35156 7.98326C6.90182 6.46391 11.8261 6.46391 16.3763 7.98326" stroke="#DDAD9C" stroke-width="1.16873" stroke-linecap="round" stroke-linejoin="round"/>
</g>
</g>
</svg>
