<svg width="137" height="137" viewBox="0 0 137 137" fill="none" xmlns="http://www.w3.org/2000/svg">
<circle cx="3.94503" cy="3.94503" r="3.94503" fill="#0266F4"/>
<circle cx="3.94503" cy="29.7653" r="3.94503" fill="#0266F4"/>
<circle cx="3.94503" cy="55.5896" r="3.94503" fill="#0266F4"/>
<circle cx="3.94503" cy="81.4099" r="3.94503" fill="#0266F4"/>
<circle cx="3.94503" cy="107.234" r="3.94503" fill="#0266F4"/>
<circle cx="3.94503" cy="133.054" r="3.94503" fill="#0266F4"/>
<circle cx="29.7653" cy="3.94503" r="3.94503" fill="#0266F4"/>
<circle cx="29.7653" cy="29.7653" r="3.94503" fill="#0266F4"/>
<circle cx="29.7653" cy="55.5896" r="3.94503" fill="#0266F4"/>
<circle cx="29.7653" cy="81.4099" r="3.94503" fill="#0266F4"/>
<circle cx="29.7653" cy="107.234" r="3.94503" fill="#0266F4"/>
<circle cx="29.7653" cy="133.054" r="3.94503" fill="#0266F4"/>
<circle cx="55.5857" cy="3.94503" r="3.94503" fill="#0266F4"/>
<circle cx="55.5857" cy="29.7653" r="3.94503" fill="#0266F4"/>
<circle cx="55.5857" cy="55.5896" r="3.94503" fill="#0266F4"/>
<circle cx="55.5857" cy="81.4099" r="3.94503" fill="#0266F4"/>
<circle cx="55.5857" cy="107.234" r="3.94503" fill="#0266F4"/>
<circle cx="55.5857" cy="133.054" r="3.94503" fill="#0266F4"/>
<circle cx="81.4138" cy="3.94503" r="3.94503" fill="#0266F4"/>
<circle cx="81.4138" cy="29.7653" r="3.94503" fill="#0266F4"/>
<circle cx="81.4138" cy="55.5896" r="3.94503" fill="#0266F4"/>
<circle cx="81.4138" cy="81.4099" r="3.94503" fill="#0266F4"/>
<circle cx="81.4138" cy="107.234" r="3.94503" fill="#0266F4"/>
<circle cx="81.4138" cy="133.054" r="3.94503" fill="#0266F4"/>
<circle cx="107.234" cy="3.94503" r="3.94503" fill="#0266F4"/>
<circle cx="107.234" cy="29.7653" r="3.94503" fill="#0266F4"/>
<circle cx="107.234" cy="55.5896" r="3.94503" fill="#0266F4"/>
<circle cx="107.234" cy="81.4099" r="3.94503" fill="#0266F4"/>
<circle cx="107.234" cy="107.234" r="3.94503" fill="#0266F4"/>
<circle cx="107.234" cy="133.054" r="3.94503" fill="#0266F4"/>
<circle cx="133.054" cy="3.94503" r="3.94503" fill="#0266F4"/>
<circle cx="133.054" cy="29.7653" r="3.94503" fill="#0266F4"/>
<circle cx="133.054" cy="55.5896" r="3.94503" fill="#0266F4"/>
<circle cx="133.054" cy="81.4099" r="3.94503" fill="#0266F4"/>
<circle cx="133.054" cy="107.234" r="3.94503" fill="#0266F4"/>
<circle cx="133.054" cy="133.054" r="3.94503" fill="#0266F4"/>
</svg>
