<svg width="145" height="120" viewBox="0 0 145 120" fill="none" xmlns="http://www.w3.org/2000/svg">
<rect width="145" height="120" fill="#747171"/>
<g id="Section 1">
<path d="M-4300 -14734C-4300 -14735.1 -4299.1 -14736 -4298 -14736H48114C48115.1 -14736 48116 -14735.1 48116 -14734V13550C48116 13551.1 48115.1 13552 48114 13552H-4298C-4299.11 13552 -4300 13551.1 -4300 13550V-14734Z" fill="#404040"/>
<path d="M-4298 -14735H48114V-14737H-4298V-14735ZM48115 -14734V13550H48117V-14734H48115ZM48114 13551H-4298V13553H48114V13551ZM-4299 13550V-14734H-4301V13550H-4299ZM-4298 13551C-4298.55 13551 -4299 13550.6 -4299 13550H-4301C-4301 13551.7 -4299.66 13553 -4298 13553V13551ZM48115 13550C48115 13550.6 48114.6 13551 48114 13551V13553C48115.7 13553 48117 13551.7 48117 13550H48115ZM48114 -14735C48114.6 -14735 48115 -14734.6 48115 -14734H48117C48117 -14735.7 48115.7 -14737 48114 -14737V-14735ZM-4298 -14737C-4299.66 -14737 -4301 -14735.7 -4301 -14734H-4299C-4299 -14734.6 -4298.55 -14735 -4298 -14735V-14737Z" fill="white" fill-opacity="0.1"/>
<g id="Find Talent" clip-path="url(#clip0_0_1)">
<rect width="1440" height="3366" transform="translate(-150 -985)" fill="white"/>
<g id="Tech studio for employers">
<rect width="1441" height="621" transform="translate(-150 -225)" fill="#F5F6FA"/>
<g id="Group 1000002354">
<g id="Post a job" filter="url(#filter0_d_0_1)">
<rect x="-50" y="-50" width="384" height="346" rx="5" fill="white" shape-rendering="crispEdges"/>
<g id="Illustration">
<g id="Layer_1" clip-path="url(#clip1_0_1)">
<path id="Vector" d="M69.2105 117.417C101.648 117.417 127.944 91.1321 127.944 58.7084C127.944 26.2846 101.648 0 69.2105 0C36.7726 0 10.4766 26.2846 10.4766 58.7084C10.4766 91.1321 36.7726 117.417 69.2105 117.417Z" fill="#F4F4F4"/>
<path id="Vector_2" d="M72.1068 120.001C111.93 120.001 144.214 119.124 144.214 118.042C144.214 116.959 111.93 116.082 72.1068 116.082C32.2833 116.082 0 116.959 0 118.042C0 119.124 32.2833 120.001 72.1068 120.001Z" fill="#EBF4FB"/>
<path id="Vector_3" d="M62.391 118.863C92.2706 118.863 116.493 118.392 116.493 117.812C116.493 117.232 92.2706 116.762 62.391 116.762C32.5113 116.762 8.28906 117.232 8.28906 117.812C8.28906 118.392 32.5113 118.863 62.391 118.863Z" fill="#C5E1F9"/>
<path id="Vector_4" d="M107.824 117.728C107.838 117.73 107.853 117.73 107.868 117.728C107.922 117.717 107.969 117.684 108 117.638C108.03 117.591 108.041 117.535 108.03 117.481L101.657 86.6829C101.646 86.6285 101.613 86.5808 101.567 86.5502C101.521 86.5196 101.464 86.5087 101.41 86.5199C101.355 86.5311 101.307 86.5634 101.277 86.6097C101.246 86.6561 101.235 86.7127 101.246 86.7671L107.619 117.574C107.632 117.618 107.658 117.658 107.695 117.686C107.732 117.714 107.778 117.729 107.824 117.728Z" fill="#00152E"/>
<path id="Vector_5" d="M83.045 117.729C83.0931 117.729 83.1398 117.713 83.1771 117.682C83.2144 117.652 83.24 117.609 83.2494 117.562L89.6239 86.7554C89.6351 86.701 89.6242 86.6444 89.5936 86.598C89.563 86.5516 89.5152 86.5193 89.4608 86.5082C89.4064 86.497 89.3497 86.5079 89.3033 86.5385C89.257 86.5691 89.2246 86.6168 89.2135 86.6712L82.8405 117.476C82.8348 117.503 82.8344 117.531 82.8395 117.558C82.8446 117.585 82.855 117.611 82.8701 117.634C82.8852 117.657 82.9047 117.677 82.9274 117.692C82.9502 117.708 82.9759 117.719 83.0029 117.724L83.045 117.729Z" fill="#C5E1F9"/>
<path id="Vector_6" d="M91.5427 117.729C91.5572 117.731 91.5718 117.731 91.5863 117.729C91.6406 117.718 91.6881 117.685 91.7185 117.639C91.7489 117.592 91.7598 117.536 91.7486 117.481L85.3756 86.679C85.3645 86.6246 85.3322 86.5769 85.2858 86.5463C85.2394 86.5157 85.1828 86.5048 85.1283 86.516C85.0739 86.5271 85.0261 86.5595 84.9955 86.6058C84.965 86.6522 84.954 86.7088 84.9652 86.7632L91.3382 117.57C91.3496 117.615 91.3759 117.656 91.413 117.685C91.45 117.714 91.4957 117.729 91.5427 117.729Z" fill="#00152E"/>
<path id="Vector_7" d="M66.7637 117.729C66.8118 117.729 66.8586 117.713 66.8959 117.682C66.9332 117.652 66.9587 117.609 66.9682 117.562L73.3426 86.7554C73.3538 86.701 73.3429 86.6444 73.3123 86.598C73.2817 86.5516 73.234 86.5193 73.1795 86.5082C73.1251 86.497 73.0685 86.5079 73.0221 86.5385C72.9757 86.5691 72.9434 86.6168 72.9322 86.6712L66.5592 117.476C66.5535 117.503 66.5532 117.531 66.5583 117.558C66.5633 117.585 66.5737 117.611 66.5888 117.634C66.6039 117.657 66.6234 117.677 66.6462 117.692C66.669 117.708 66.6946 117.719 66.7216 117.724L66.7637 117.729Z" fill="#C5E1F9"/>
<path id="Vector_8" d="M90.6247 52.9466C92.6873 49.4001 101.851 46.9911 103.704 47.8687L103.722 47.8808C104.037 48.0338 104.331 48.2273 104.596 48.4563C118.827 61.4086 111.963 86.3109 102.04 86.3109C96.052 86.3109 81.0133 86.8609 77.2969 86.8609C77.2924 86.8579 89.9962 54.4719 90.6247 52.9466Z" fill="#FFDD33"/>
<path id="Vector_9" d="M110.037 60.7257C108.948 54.1031 105.677 48.0424 105.582 51.0645C105.281 61.3118 100.633 68.4199 92.9022 71.1639C87.5245 73.0739 80.8102 83.7616 68.5469 85.099C71.683 88.5148 99.7683 85.4642 99.7683 85.4642C99.7683 85.4642 112.486 75.6421 110.037 60.7257Z" fill="#FFC933"/>
<path id="Vector_10" d="M65.5233 117.726C65.5378 117.728 65.5524 117.728 65.5669 117.726C65.6212 117.715 65.6687 117.682 65.6991 117.636C65.7295 117.589 65.7404 117.533 65.7292 117.478L54.3529 62.5044C54.3485 62.4765 54.3384 62.4498 54.3234 62.4258C54.3084 62.4019 54.2886 62.3813 54.2654 62.3652C54.2422 62.3492 54.2159 62.338 54.1882 62.3323C54.1605 62.3267 54.132 62.3267 54.1043 62.3324C54.0767 62.3381 54.0504 62.3494 54.0272 62.3655C54.004 62.3816 53.9843 62.4022 53.9693 62.4262C53.9544 62.4501 53.9444 62.4768 53.94 62.5047C53.9356 62.5326 53.937 62.5611 53.944 62.5885L65.3188 117.56C65.3287 117.606 65.3544 117.649 65.3916 117.679C65.4288 117.709 65.4753 117.726 65.5233 117.726Z" fill="#C5E1F9"/>
<path id="Vector_11" d="M21.3028 117.729C21.3509 117.729 21.3976 117.713 21.435 117.682C21.4723 117.652 21.4978 117.61 21.5072 117.562L32.8836 62.5913C32.8947 62.5369 32.8838 62.4803 32.8532 62.4339C32.8226 62.3876 32.7749 62.3553 32.7205 62.3441C32.666 62.333 32.6094 62.3439 32.563 62.3744C32.5166 62.405 32.4843 62.4528 32.4731 62.5072L21.0983 117.477C21.0926 117.504 21.0923 117.531 21.0973 117.558C21.1024 117.586 21.1128 117.611 21.1279 117.634C21.143 117.657 21.1625 117.677 21.1853 117.693C21.208 117.708 21.2337 117.719 21.2607 117.725C21.2745 117.728 21.2886 117.729 21.3028 117.729Z" fill="#C5E1F9"/>
<path id="Vector_12" d="M33.6623 63.0988H53.9584C54.5609 63.0988 55.1387 62.8596 55.5647 62.4337C55.9907 62.0079 56.2301 61.4303 56.2301 60.8281H31.3906C31.3904 61.1264 31.449 61.4217 31.5631 61.6973C31.6772 61.9729 31.8446 62.2233 32.0555 62.4342C32.2665 62.6451 32.517 62.8123 32.7927 62.9264C33.0684 63.0404 33.3639 63.099 33.6623 63.0988Z" fill="#00152E"/>
<path id="Vector_13" d="M35.2611 57.1081H37.0652L37.1449 57.0765C37.2411 57.0361 37.3174 56.959 37.3569 56.8624C37.3963 56.7657 37.3958 56.6573 37.3553 56.5611L29.5075 37.7916C29.485 37.7376 29.449 37.6903 29.4029 37.6543C29.3568 37.6182 29.3022 37.5946 29.2444 37.5857L27.2734 37.2852L35.2611 57.1081Z" fill="#00152E"/>
<path id="Vector_14" d="M26.9219 37.8464L34.89 56.8608C34.9104 56.9099 34.9403 56.9544 34.9779 56.9919C35.0156 57.0293 35.0604 57.059 35.1095 57.0791C35.1587 57.0992 35.2114 57.1094 35.2646 57.1091C35.3177 57.1087 35.3703 57.0979 35.4192 57.0772C35.5181 57.0357 35.5965 56.9568 35.6373 56.8576C35.6782 56.7585 35.6781 56.6473 35.6372 56.5482L27.6691 37.5338C27.6276 37.435 27.5486 37.3566 27.4494 37.3157C27.3503 37.2749 27.239 37.275 27.1399 37.3159C27.0406 37.3574 26.9619 37.4366 26.9211 37.536C26.8802 37.6355 26.8805 37.7471 26.9219 37.8464Z" fill="#EBF4FB"/>
<path id="Vector_15" d="M56.1931 58.5599H58.2047C58.4194 58.5595 58.6251 58.474 58.7767 58.3221C58.9284 58.1703 59.0136 57.9645 59.0136 57.7499C59.0136 57.5355 58.9283 57.3298 58.7767 57.1782C58.625 57.0266 58.4192 56.9414 58.2047 56.9414H56.1931C56.0868 56.9412 55.9815 56.962 55.8832 57.0025C55.7849 57.0431 55.6955 57.1026 55.6202 57.1777C55.545 57.2528 55.4853 57.342 55.4445 57.4402C55.4038 57.5383 55.3828 57.6436 55.3828 57.7499C55.3828 57.9647 55.4682 58.1707 55.6202 58.3226C55.7721 58.4745 55.9782 58.5599 56.1931 58.5599Z" fill="#00152E"/>
<path id="Vector_16" d="M36.0745 58.5599H56.1932C56.4078 58.5595 56.6135 58.474 56.7652 58.3221C56.9168 58.1703 57.002 57.9645 57.002 57.7499C57.002 57.5355 56.9168 57.3298 56.7651 57.1782C56.6134 57.0266 56.4077 56.9414 56.1932 56.9414H36.0745C35.8599 56.9414 35.6542 57.0266 35.5025 57.1782C35.3508 57.3298 35.2656 57.5355 35.2656 57.7499C35.2656 57.9645 35.3508 58.1703 35.5024 58.3221C35.6541 58.474 35.8598 58.5595 36.0745 58.5599Z" fill="#EBF4FB"/>
<path id="Vector_17" d="M35.8672 57.7474C35.8672 57.811 35.8861 57.8732 35.9214 57.926C35.9568 57.9789 36.007 58.0201 36.0658 58.0445C36.1246 58.0688 36.1893 58.0752 36.2517 58.0628C36.3141 58.0504 36.3714 58.0197 36.4164 57.9748C36.4614 57.9298 36.4921 57.8725 36.5045 57.8101C36.5169 57.7477 36.5105 57.6831 36.4862 57.6243C36.4618 57.5655 36.4206 57.5153 36.3677 57.48C36.3148 57.4446 36.2526 57.4258 36.1889 57.4258C36.1036 57.4258 36.0218 57.4597 35.9614 57.52C35.9011 57.5803 35.8672 57.6621 35.8672 57.7474Z" fill="#00152E"/>
<path id="Vector_18" d="M52.4661 58.0677H54.0086C54.0612 58.0633 54.1102 58.0392 54.1459 58.0004C54.1815 57.9616 54.2013 57.9108 54.2013 57.8581C54.2013 57.8054 54.1815 57.7546 54.1459 57.7157C54.1102 57.6769 54.0612 57.6529 54.0086 57.6484H52.4661C52.4136 57.6529 52.3646 57.6769 52.3289 57.7157C52.2932 57.7546 52.2734 57.8054 52.2734 57.8581C52.2734 57.9108 52.2932 57.9616 52.3289 58.0004C52.3646 58.0392 52.4136 58.0633 52.4661 58.0677Z" fill="#00152E"/>
<path id="Vector_19" d="M49.4896 58.0677H51.0321C51.0846 58.0633 51.1336 58.0392 51.1693 58.0004C51.205 57.9616 51.2248 57.9108 51.2248 57.8581C51.2248 57.8054 51.205 57.7546 51.1693 57.7157C51.1336 57.6769 51.0846 57.6529 51.0321 57.6484H49.4896C49.437 57.6529 49.3881 57.6769 49.3524 57.7157C49.3167 57.7546 49.2969 57.8054 49.2969 57.8581C49.2969 57.9108 49.3167 57.9616 49.3524 58.0004C49.3881 58.0392 49.437 58.0633 49.4896 58.0677Z" fill="#00152E"/>
<path id="Vector_20" d="M31.3512 109.313C31.9992 108.058 32.6772 106.82 33.4289 105.624C39.3614 96.1713 44.5091 83.3948 46.8845 70.2246C47.3821 67.458 49.4057 65.9853 51.1602 65.7344L55.6825 77.5386C55.3382 85.8699 47.4513 94.353 35.9772 107.011L35.6645 110C35.6645 110 28.645 116.861 26.0938 115.129C28.7353 113.721 30.4627 111.046 31.3512 109.313Z" fill="#70230A"/>
<path id="Vector_21" d="M35.9774 107.012C36.8592 107.407 37.5799 108.091 38.0205 108.951C38.461 109.81 38.5952 110.795 38.4009 111.741L37.2147 117.513H36.5426V111.37C34.7978 111.816 33.2681 112.866 32.2263 114.335L30.1847 117.212C30.1185 117.305 30.031 117.381 29.9295 117.434C29.8281 117.486 29.7155 117.513 29.6014 117.513H23.4374C23.3579 117.513 23.2795 117.495 23.2079 117.461C23.1362 117.427 23.0732 117.377 23.0234 117.315C22.9736 117.253 22.9384 117.181 22.9202 117.104C22.9021 117.026 22.9016 116.946 22.9187 116.868C22.9985 116.507 23.1858 116.179 23.4561 115.926C23.7264 115.674 24.0669 115.509 24.4326 115.454L24.7183 115.412C28.0066 114.919 30.9892 113.208 33.0743 110.618L35.9774 107.012Z" fill="#00152E"/>
<path id="Vector_22" d="M53.6755 64.8506C54.9693 64.6063 56.2935 64.5673 57.5994 64.7349L91.4263 68.7547C91.745 68.7953 88.4841 84.8704 88.4841 84.8704C80.8062 84.0333 72.8005 82.1173 64.4039 78.9089C67.7234 89.6747 65.757 103.09 67.6738 107.011C67.7249 108.549 68.9818 108.097 69.0149 109.045L60.5612 115.369C60.1759 115.641 59.7032 115.762 59.2345 115.706C58.7658 115.651 58.3343 115.423 58.0234 115.068L58.5766 114.649C60.3095 113.336 61.8093 111.741 63.0132 109.93C63.5141 109.177 63.8393 108.321 63.9647 107.426C64.0901 106.53 64.0126 105.618 63.7379 104.756C59.6651 92.0445 54.4483 81.5357 49.6313 72.0894C47.8242 68.2092 49.5261 65.6741 53.6755 64.8506Z" fill="#8C3012"/>
<path id="Vector_23" d="M59.2578 72.3398C62.8194 74.1973 67.8273 82.4084 68.7744 74.4512C74.4062 74.6601 74.5881 77.5003 74.5881 77.5003L73.9116 82.0462C70.7945 81.1836 67.6233 80.1382 64.398 78.9099C62.3548 74.6105 59.2578 72.3398 59.2578 72.3398Z" fill="#70230A"/>
<path id="Vector_24" d="M67.6745 107.012C68.5567 107.407 69.2777 108.09 69.7183 108.95C70.159 109.81 70.2929 110.795 70.098 111.741L68.9118 117.513H68.2413V111.37C66.4958 111.815 64.9655 112.866 63.9235 114.335L61.8863 117.217C61.8201 117.31 61.7326 117.386 61.6312 117.438C61.5297 117.49 61.4172 117.518 61.303 117.518H55.139C55.0597 117.517 54.9814 117.499 54.91 117.465C54.8385 117.431 54.7757 117.381 54.726 117.319C54.6764 117.257 54.6413 117.185 54.6233 117.108C54.6052 117.031 54.6047 116.95 54.6218 116.873C54.7011 116.512 54.8881 116.183 55.1582 115.931C55.4282 115.678 55.7686 115.514 56.1343 115.459L56.4199 115.417C59.7073 114.921 62.6882 113.208 64.7714 110.618L67.6745 107.012Z" fill="#00152E"/>
<path id="Vector_25" d="M84.5854 32.7342C81.4387 29.7843 77.82 23.3104 81.6988 15.6704C81.6988 15.6704 85.4168 13.4057 88.7543 11.8714C94.8943 9.0522 103.467 15.7395 99.63 25.7719C96.3736 34.2775 84.5854 32.7342 84.5854 32.7342Z" fill="#00152E"/>
<path id="Vector_26" d="M93.687 42.17C97.8031 41.2005 100.253 36.6536 99.1594 32.0143C98.0656 27.3749 93.8422 24.4 89.7262 25.3695C85.6101 26.339 83.1601 30.8859 84.2538 35.5253C85.3476 40.1646 89.571 43.1396 93.687 42.17Z" fill="#00152E"/>
<path id="Vector_27" d="M92.3793 50.3164C95.7513 49.9913 98.1875 46.6464 97.8207 42.8454C97.4539 39.0445 94.4229 36.2268 91.0509 36.5519C87.6789 36.877 85.2427 40.2219 85.6095 44.0229C85.9763 47.8239 89.0073 50.6416 92.3793 50.3164Z" fill="#00152E"/>
<path id="Vector_28" d="M81.3563 31.6765C78.6787 38.7875 76.2101 41.9779 74.9322 43.2342C78.3755 42.7315 81.709 41.6503 84.7916 40.0363C86.934 38.8882 91.115 41.5391 92.1042 43.2147C93.0769 44.8602 90.0355 46.2443 87.833 46.7702C87.833 46.7702 76.9663 49.1837 69.5094 47.6538C68.9306 47.5351 66.8152 47.0527 67.7654 45.4508C69.786 42.0425 75.0299 39.007 79.2726 31.2617L81.3563 31.6765Z" fill="#70230A"/>
<path id="Vector_29" d="M81.3493 31.676L83.5293 29.0837L80.4262 25.7371C80.2234 25.5916 79.9847 25.5043 79.7359 25.4847C79.487 25.4651 79.2376 25.5139 79.0145 25.6259L78.5154 25.8768C78.1698 26.0498 77.8865 26.3257 77.7045 26.6665C77.5224 27.0073 77.4507 27.3961 77.4991 27.7793L78.1726 33.1307L81.3493 31.676Z" fill="#70230A"/>
<path id="Vector_30" d="M76.9577 28.0694L79.0889 31.5649C79.1434 31.6542 79.2599 31.6824 79.3493 31.628L86.4602 27.2962C86.5495 27.2418 86.5778 27.1253 86.5233 27.036L84.3921 23.5405C84.3376 23.4512 84.2211 23.4229 84.1317 23.4773L77.0208 27.8091C76.9315 27.8636 76.9032 27.9801 76.9577 28.0694Z" fill="white"/>
<path id="Vector_31" d="M78.2588 27.4423L80.2422 30.6953L86.0821 27.1377L84.0988 23.8847L78.2588 27.4423Z" fill="#00152E"/>
<path id="Vector_32" d="M79.4349 26.4624L80.6888 25.8613C80.8839 25.7664 81.0466 25.6159 81.1563 25.4287C81.266 25.2415 81.3178 25.026 81.3052 24.8094C81.3028 24.7796 81.2932 24.7509 81.2772 24.7257C81.2612 24.7005 81.2393 24.6796 81.2133 24.6648C81.1874 24.65 81.1582 24.6417 81.1284 24.6407C81.0986 24.6397 81.0689 24.646 81.0421 24.6591L79.0215 25.6194C78.9662 25.6462 78.9167 25.6836 78.8758 25.7295C78.835 25.7755 78.8036 25.829 78.7835 25.8871C78.7634 25.9451 78.755 26.0066 78.7587 26.0679C78.7623 26.1293 78.7781 26.1893 78.805 26.2445C78.8316 26.3005 78.8692 26.3507 78.9154 26.392C78.9616 26.4334 79.0157 26.4651 79.0743 26.4854C79.1329 26.5057 79.195 26.5141 79.2569 26.5101C79.3188 26.5062 79.3793 26.49 79.4349 26.4624Z" fill="#70230A"/>
<path id="Vector_33" d="M79.0277 26.7986L80.4469 26.755C80.6691 26.748 80.8842 26.6751 81.0649 26.5456C81.2456 26.4161 81.3837 26.2358 81.4617 26.0277C81.4728 25.9984 81.4764 25.9669 81.4721 25.9359C81.4679 25.9048 81.4559 25.8754 81.4374 25.8502C81.4189 25.8249 81.3944 25.8047 81.3661 25.7914C81.3377 25.778 81.3065 25.772 81.2753 25.7737L78.9946 25.8444C78.9318 25.8459 78.87 25.8599 78.8126 25.8855C78.7553 25.9111 78.7036 25.9478 78.6605 25.9935C78.6174 26.0392 78.5839 26.093 78.5617 26.1517C78.5396 26.2105 78.5293 26.273 78.5315 26.3358C78.5335 26.3988 78.5479 26.4608 78.5739 26.5183C78.5999 26.5757 78.6371 26.6274 78.6832 26.6704C78.7293 26.7135 78.7835 26.7469 78.8426 26.7689C78.9017 26.7909 78.9646 26.801 79.0277 26.7986Z" fill="#70230A"/>
<path id="Vector_34" d="M77.8922 27.2379H79.2453C79.6031 27.2379 79.9278 26.9674 80.0662 26.5511C80.1067 26.4294 80.0346 26.2942 79.9294 26.2942L78.1328 26.2852C77.9238 26.2852 77.7554 26.4955 77.7539 26.757C77.7524 27.0185 77.6847 27.2364 77.8922 27.2379Z" fill="#70230A"/>
<path id="Vector_35" d="M81.2749 66.9984C81.2749 66.9984 77.79 60.6131 80.3142 48.4047C76.688 46.8043 76.5452 43.2442 80.197 40.9014C83.2038 38.9704 86.5745 38.5917 88.2838 35.0241C89.2295 34.8228 90.6322 32.8121 91.3313 32.6528C91.9911 32.5057 92.6748 32.5012 93.3365 32.6397C93.9983 32.7781 94.6228 33.0563 95.1683 33.4556C95.7137 33.8548 96.1676 34.3659 96.4994 34.9547C96.8312 35.5435 97.0334 36.1963 97.0924 36.8695C98.038 47.0041 91.1539 51.4253 91.2561 60.0646C91.3538 68.145 98.698 70.3495 98.689 76.9872C98.689 82.4633 94.6854 85.9211 88.3665 85.4237C80.8209 84.8226 74.5847 82.6451 67.3999 80.0138C69.1649 79.829 70.5059 70.6967 63.8984 65.4896C71.5899 66.3312 81.2749 66.9984 81.2749 66.9984Z" fill="#0069A3"/>
<path id="Vector_36" d="M82.5901 55.5557C85.3444 50.2599 82.7119 49.2095 80.32 48.4025C78.3911 47.5504 77.4469 46.1484 77.5372 44.6621C78.346 48.4025 86.3712 48.6369 88.4745 42.668L90.4019 45.5818C90.4019 45.5818 84.7926 55.7195 82.5901 55.5557Z" fill="#003851"/>
<path id="Vector_37" d="M81.2757 66.9987C81.2757 66.9987 80.1827 64.9955 79.6641 61.0898C80.6503 66.049 83.6707 65.9483 87.0639 67.2346C88.5763 67.8087 91.8086 69.2303 93.3572 70.3904C88.9341 68.4474 84.8839 67.3639 81.2757 66.9987Z" fill="#003851"/>
<path id="Vector_38" d="M68.4523 72.625C71.1239 78.4677 83.0355 82.0503 89.7933 82.0503C95.0448 82.0503 98.8604 79.2236 97.8621 73.3193C98.4081 74.465 98.6901 75.7185 98.6875 76.9875C98.6875 82.4636 94.6839 85.9214 88.3651 85.424C80.8194 84.8229 74.5833 82.6454 67.3984 80.0141C68.4719 79.9014 69.386 76.4721 68.4508 72.6325L68.4523 72.625Z" fill="#003851"/>
<path id="Vector_39" d="M62.4691 51.7893C73.7056 54.317 78.7901 53.6302 82.5833 55.5552C82.5833 55.5552 86.1509 51.056 88.0572 43.4565C88.6495 41.1002 92.4682 39.1661 94.4046 39.3344C96.3095 39.4997 95.669 42.7773 94.8166 44.8751C94.8166 44.8751 90.4567 55.1164 84.8835 60.2919C84.6705 60.4882 84.4096 60.6251 84.127 60.689C83.8445 60.7528 83.5501 60.7413 83.2733 60.6556C78.7631 59.2761 70.3034 56.1969 62 53.1869L62.4691 51.7893Z" fill="#8C3012"/>
<path id="Vector_40" d="M62.4757 51.7895L57.7429 50.7376C57.4711 50.6776 57.1902 50.6714 56.9161 50.7195L54.3106 51.1884C54.186 51.21 54.0633 51.2417 53.9438 51.2831C53.9438 51.2831 51.4045 52.1412 51.6316 52.3215C51.7025 52.3609 51.7808 52.385 51.8616 52.3922C51.9424 52.3995 52.0238 52.3897 52.1006 52.3636L54.0806 51.7625C54.1437 51.7435 54.208 51.7289 54.2731 51.7189L56.9627 51.3206L54.9706 51.8947C54.816 51.9393 54.6652 51.996 54.5196 52.0645L53.0839 52.7618C53.0497 52.7775 53.0216 52.804 53.004 52.8372C52.9864 52.8704 52.9802 52.9084 52.9863 52.9455C52.9925 52.9826 53.0107 53.0166 53.0381 53.0423C53.0655 53.0681 53.1006 53.0841 53.138 53.0879L53.795 53.1645C54.3538 53.2297 54.9191 53.2166 55.4743 53.1255L56.8619 52.8985C57.1052 52.8592 57.3531 52.8567 57.5971 52.891L59.6778 53.1916C59.9953 53.2382 60.3164 53.2548 60.637 53.2412L62.0066 53.1871L62.4757 51.7895Z" fill="#8C3012"/>
<path id="Vector_41" d="M93.9798 32.5412C96.6363 34.2724 91.1037 37.6506 85.1953 39.1669C88.1375 36.9488 88.8862 33.1995 88.8862 33.1995C90.1581 32.929 91.1759 32.681 92.0268 32.4977C92.6721 32.3572 93.3415 32.3722 93.9798 32.5412Z" fill="#8C3012"/>
<path id="Vector_42" d="M88.8828 33.1995L89.9262 26.2161L93.5795 25.8555L94.6319 33.3873C94.6319 33.3873 91.8942 35.5212 88.8828 33.1995Z" fill="#8C3012"/>
<path id="Vector_43" d="M88.75 33.7164C88.8432 33.3933 88.8823 33.1995 88.8823 33.1995L89.9257 26.2161L93.579 25.8555L93.7774 27.2621C93.7774 27.2621 92.041 31.9296 88.75 33.7164Z" fill="#70230A"/>
<path id="Vector_44" d="M82.3556 16.7194C81.3137 22.0767 83.0531 29.565 85.418 31.8071C86.8944 33.2062 95.9525 25.8096 95.539 22.6808C95.1256 19.5521 92.8013 14.1707 91.1971 12.5627C89.593 10.9548 83.2907 11.8985 82.3556 16.7194Z" fill="#8C3012"/>
<path id="Vector_45" d="M86.848 22.0665C90.3669 22.0665 93.2195 19.4755 93.2195 16.2793C93.2195 13.0832 90.3669 10.4922 86.848 10.4922C83.3292 10.4922 80.4766 13.0832 80.4766 16.2793C80.4766 19.4755 83.3292 22.0665 86.848 22.0665Z" fill="#00152E"/>
<path id="Vector_46" d="M88.8782 20.8372C89.881 24.02 93.3885 25.7527 96.7125 24.7068C100.037 23.6609 98.3542 20.7065 97.353 17.5236C96.3517 14.3408 96.4073 12.1347 93.0833 13.1806C89.7592 14.2266 87.8769 17.6543 88.8782 20.8372Z" fill="#00152E"/>
<path id="Vector_47" d="M87.3157 23.1435C87.343 23.1433 87.3693 23.1331 87.3895 23.1148C87.4097 23.0965 87.4225 23.0714 87.4255 23.0443C87.4271 23.0298 87.4259 23.0151 87.4218 23.001C87.4177 22.987 87.4108 22.9739 87.4015 22.9626C87.3923 22.9512 87.3809 22.9418 87.3679 22.935C87.355 22.9281 87.3408 22.9239 87.3263 22.9226C85.6725 22.7468 82.7529 22.0209 81.7726 19.1657C81.7631 19.1376 81.7427 19.1144 81.7161 19.1013C81.6894 19.0882 81.6587 19.0862 81.6306 19.0958C81.6025 19.1054 81.5793 19.1257 81.5662 19.1523C81.5531 19.179 81.5511 19.2097 81.5607 19.2378C82.5815 22.2133 85.5973 22.9602 87.3037 23.145L87.3157 23.1435Z" fill="#00152E"/>
<path id="Vector_48" d="M95.5696 24.5054C95.8147 23.0444 95.1651 21.7177 94.1185 21.5423C93.072 21.3669 92.0249 22.4091 91.7798 23.8701C91.5347 25.3312 92.1843 26.6578 93.2308 26.8333C94.2774 27.0087 95.3245 25.9665 95.5696 24.5054Z" fill="#8C3012"/>
<path id="Vector_49" d="M94.6831 24.9321C94.853 23.7479 94.3583 22.7125 93.5781 22.6194C93.4577 22.6058 93.3358 22.615 93.2188 22.6464C93.3161 22.5587 93.4302 22.4917 93.5543 22.4496C93.6784 22.4075 93.8098 22.3911 93.9404 22.4015C94.5929 22.4796 95.0063 23.3452 94.865 24.3355C94.8309 24.577 94.7636 24.8127 94.665 25.0358C94.671 25.0012 94.6786 24.9622 94.6831 24.9321Z" fill="#70230A"/>
<path id="Vector_50" d="M93.1406 26.5924C93.1403 26.7007 93.1722 26.8067 93.2322 26.8968C93.2922 26.987 93.3777 27.0574 93.4777 27.099C93.5778 27.1405 93.688 27.1515 93.7943 27.1304C93.9006 27.1094 93.9982 27.0573 94.0748 26.9807C94.1515 26.9041 94.2036 26.8065 94.2247 26.7002C94.2457 26.594 94.2348 26.4839 94.1932 26.3839C94.1516 26.2838 94.0812 26.1984 93.991 26.1384C93.9007 26.0784 93.7947 26.0466 93.6864 26.0469C93.5418 26.0473 93.4032 26.1049 93.3009 26.2071C93.1986 26.3093 93.141 26.4478 93.1406 26.5924Z" fill="white"/>
<path id="Vector_51" d="M93.2266 27.6774C93.2266 27.7666 93.253 27.8537 93.3026 27.9279C93.3521 28.002 93.4226 28.0598 93.505 28.0939C93.5874 28.128 93.6781 28.137 93.7656 28.1196C93.8531 28.1022 93.9334 28.0592 93.9965 27.9962C94.0596 27.9331 94.1025 27.8528 94.1199 27.7653C94.1374 27.6779 94.1284 27.5872 94.0943 27.5049C94.0601 27.4225 94.0023 27.3521 93.9282 27.3025C93.854 27.253 93.7668 27.2266 93.6776 27.2266C93.558 27.2266 93.4432 27.2741 93.3587 27.3586C93.2741 27.4432 93.2266 27.5578 93.2266 27.6774Z" fill="white"/>
<path id="Vector_52" d="M93.3203 28.5824C93.32 28.6548 93.3412 28.7256 93.3813 28.7859C93.4213 28.8461 93.4783 28.8932 93.5451 28.921C93.612 28.9488 93.6855 28.9562 93.7565 28.9421C93.8276 28.9281 93.8928 28.8933 93.944 28.8421C93.9952 28.791 94.03 28.7258 94.044 28.6548C94.0581 28.5838 94.0507 28.5103 94.0229 28.4435C93.995 28.3767 93.948 28.3197 93.8877 28.2797C93.8274 28.2397 93.7565 28.2185 93.6841 28.2188C93.5877 28.2188 93.4951 28.2571 93.4269 28.3253C93.3586 28.3935 93.3203 28.486 93.3203 28.5824Z" fill="white"/>
<path id="Vector_53" d="M83.1323 19.4602C83.1468 19.4602 83.1611 19.4571 83.1743 19.4512C83.1875 19.4452 83.1993 19.4365 83.2089 19.4256C83.2191 19.416 83.2272 19.4043 83.2328 19.3914C83.2383 19.3785 83.2412 19.3646 83.2412 19.3505C83.2412 19.3364 83.2383 19.3225 83.2328 19.3096C83.2272 19.2967 83.2191 19.285 83.2089 19.2754C81.9385 18.1062 81.6754 15.798 82.2903 14.5131C82.3018 14.4879 82.303 14.4593 82.2938 14.4332C82.2845 14.4071 82.2655 14.3857 82.2407 14.3734C82.2156 14.3615 82.1868 14.36 82.1606 14.3693C82.1344 14.3786 82.1129 14.3979 82.1009 14.4229C81.4544 15.7754 81.692 18.1648 83.0661 19.4286C83.0836 19.4469 83.1071 19.4581 83.1323 19.4602Z" fill="white"/>
<path id="Vector_54" d="M98.5107 19.8524C98.5243 19.852 98.5377 19.849 98.5501 19.8434C98.5626 19.8378 98.5738 19.8298 98.5831 19.8199C98.5925 19.81 98.5998 19.7984 98.6046 19.7856C98.6095 19.7729 98.6118 19.7593 98.6114 19.7457C98.5107 16.6711 96.2946 13.8263 93.2216 12.833C93.1953 12.8247 93.1668 12.8271 93.1422 12.8398C93.1177 12.8524 93.0992 12.8743 93.0908 12.9007C93.0825 12.927 93.0849 12.9555 93.0976 12.98C93.1103 13.0045 93.1322 13.023 93.1585 13.0314C96.1473 14.0022 98.3032 16.7658 98.4024 19.7547C98.4043 19.7818 98.4167 19.8072 98.4369 19.8254C98.457 19.8436 98.4835 19.8533 98.5107 19.8524Z" fill="white"/>
<path id="Vector_55" d="M67.5606 85.8719C67.5226 86.1009 67.535 86.3354 67.5968 86.5592C67.6587 86.7829 67.7685 86.9906 67.9188 87.1676C68.069 87.3446 68.256 87.4869 68.4667 87.5844C68.6775 87.6819 68.9069 87.7324 69.1392 87.7323H103.062C112.985 87.7323 121.732 60.2678 104.594 48.4531C106.523 50.1062 107.762 53.9983 108.377 60.7652C109.616 74.3998 95.3663 85.11 89.088 85.11H68.4657C68.2487 85.1107 68.0391 85.1882 67.8739 85.3288C67.7088 85.4694 67.5988 85.6639 67.5636 85.8779L67.5606 85.8719Z" fill="#FF9500"/>
<path id="Vector_56" d="M68.5371 85.3106H89.0918C92.6384 85.3106 98.1393 82.1052 102.172 77.6871C106.832 72.5777 109.113 66.5667 108.584 60.7435C108.145 55.9061 107.343 50.6434 104.733 48.2961C104.692 48.2627 104.639 48.2464 104.586 48.2507C104.533 48.2549 104.483 48.2793 104.447 48.3189C104.412 48.3585 104.392 48.4102 104.393 48.4636C104.395 48.5169 104.416 48.5677 104.454 48.6057C107.294 51.1604 107.912 57.9033 108.167 60.778C108.686 66.4885 106.446 72.3839 101.863 77.4016C97.3711 82.3171 92.037 84.8883 89.0843 84.8883H68.5371C68.4817 84.8883 68.4285 84.9104 68.3893 84.9495C68.3501 84.9887 68.3281 85.0418 68.3281 85.0972C68.3281 85.1526 68.3501 85.2058 68.3893 85.2449C68.4285 85.2841 68.4817 85.3061 68.5371 85.3061V85.3106Z" fill="white"/>
<path id="Vector_57" d="M61.5795 117.726C61.5934 117.728 61.6076 117.728 61.6216 117.726C61.6485 117.721 61.6742 117.71 61.697 117.694C61.7197 117.679 61.7392 117.659 61.7543 117.636C61.7694 117.613 61.7798 117.587 61.7849 117.56C61.79 117.533 61.7896 117.505 61.7839 117.478L50.4076 62.5044C50.4032 62.4765 50.3931 62.4498 50.3781 62.4258C50.363 62.4019 50.3433 62.3813 50.3201 62.3652C50.2969 62.3492 50.2706 62.338 50.2429 62.3323C50.2152 62.3267 50.1867 62.3267 50.159 62.3324C50.1314 62.3381 50.1051 62.3494 50.0819 62.3655C50.0587 62.3816 50.039 62.4022 50.024 62.4262C50.009 62.4501 49.9991 62.4768 49.9947 62.5047C49.9903 62.5326 49.9917 62.5611 49.9986 62.5885L61.3735 117.56C61.3832 117.607 61.4091 117.649 61.4466 117.68C61.4842 117.71 61.5311 117.727 61.5795 117.726Z" fill="#00152E"/>
<path id="Vector_58" d="M17.3587 117.726C17.4067 117.726 17.4531 117.709 17.4903 117.679C17.5275 117.649 17.5532 117.606 17.5631 117.56L28.938 62.5885C28.945 62.5611 28.9463 62.5326 28.9419 62.5047C28.9376 62.4768 28.9276 62.4501 28.9126 62.4262C28.8976 62.4022 28.8779 62.3816 28.8547 62.3655C28.8315 62.3494 28.8053 62.3381 28.7776 62.3324C28.7499 62.3267 28.7214 62.3267 28.6937 62.3323C28.666 62.338 28.6398 62.3492 28.6165 62.3652C28.5933 62.3813 28.5736 62.4019 28.5585 62.4258C28.5435 62.4498 28.5335 62.4765 28.5291 62.5044L17.1527 117.474C17.1416 117.528 17.1524 117.585 17.1828 117.631C17.2132 117.678 17.2608 117.71 17.3151 117.722C17.3294 117.725 17.344 117.726 17.3587 117.726Z" fill="#00152E"/>
<path id="Vector_59" d="M27.4457 60.8281C27.4457 60.8371 26.4609 60.8281 26.4609 60.8281C26.4609 61.4303 26.7003 62.0079 27.1263 62.4337C27.5523 62.8596 28.1301 63.0988 28.7326 63.0988H50.021C50.3192 63.0988 50.6145 63.0401 50.8901 62.9259C51.1656 62.8118 51.4159 62.6445 51.6267 62.4336C51.8376 62.2228 52.0048 61.9724 52.1188 61.697C52.2327 61.4215 52.2913 61.1262 52.2911 60.8281H27.4457Z" fill="#9BC7F8"/>
<path id="Vector_60" d="M60.9335 60.8278H68.1017C68.4028 60.8278 68.6915 60.7082 68.9044 60.4954C69.1172 60.2827 69.2368 59.9941 69.2368 59.6932C69.2368 59.3923 69.1172 59.1037 68.9044 58.8909C68.6915 58.6781 68.4028 58.5586 68.1017 58.5586H60.9335C60.7843 58.5584 60.6365 58.5876 60.4986 58.6445C60.3607 58.7015 60.2354 58.785 60.1299 58.8904C60.0243 58.9957 59.9406 59.1209 59.8834 59.2586C59.8263 59.3964 59.7969 59.5441 59.7969 59.6932C59.7969 59.8423 59.8263 59.99 59.8834 60.1277C59.9406 60.2655 60.0243 60.3906 60.1299 60.496C60.2354 60.6014 60.3607 60.6849 60.4986 60.7418C60.6365 60.7988 60.7843 60.828 60.9335 60.8278Z" fill="#00152E"/>
<path id="Vector_61" d="M16.932 60.8278H61.0888C61.238 60.828 61.3857 60.7988 61.5236 60.7418C61.6615 60.6849 61.7868 60.6014 61.8924 60.496C61.9979 60.3906 62.0817 60.2655 62.1388 60.1277C62.1959 59.99 62.2254 59.8423 62.2254 59.6932C62.2254 59.5441 62.1959 59.3964 62.1388 59.2586C62.0817 59.1209 61.9979 58.9957 61.8924 58.8904C61.7868 58.785 61.6615 58.7015 61.5236 58.6445C61.3857 58.5876 61.238 58.5584 61.0888 58.5586H16.932C16.6309 58.5586 16.3422 58.6781 16.1293 58.8909C15.9165 59.1037 15.7969 59.3923 15.7969 59.6932C15.7969 59.9941 15.9165 60.2827 16.1293 60.4954C16.3422 60.7082 16.6309 60.8278 16.932 60.8278Z" fill="#C5E1F9"/>
</g>
</g>
</g>
</g>
</g>
</g>
</g>
<defs>
<filter id="filter0_d_0_1" x="-60" y="-60" width="408" height="370" filterUnits="userSpaceOnUse" color-interpolation-filters="sRGB">
<feFlood flood-opacity="0" result="BackgroundImageFix"/>
<feColorMatrix in="SourceAlpha" type="matrix" values="0 0 0 0 0 0 0 0 0 0 0 0 0 0 0 0 0 0 127 0" result="hardAlpha"/>
<feMorphology radius="2" operator="dilate" in="SourceAlpha" result="effect1_dropShadow_0_1"/>
<feOffset dx="2" dy="2"/>
<feGaussianBlur stdDeviation="5"/>
<feComposite in2="hardAlpha" operator="out"/>
<feColorMatrix type="matrix" values="0 0 0 0 0 0 0 0 0 0 0 0 0 0 0 0 0 0 0.1 0"/>
<feBlend mode="normal" in2="BackgroundImageFix" result="effect1_dropShadow_0_1"/>
<feBlend mode="normal" in="SourceGraphic" in2="effect1_dropShadow_0_1" result="shape"/>
</filter>
<clipPath id="clip0_0_1">
<rect width="1440" height="3366" fill="white" transform="translate(-150 -985)"/>
</clipPath>
<clipPath id="clip1_0_1">
<rect width="144.214" height="120" fill="white"/>
</clipPath>
</defs>
</svg>
