<svg width="164" height="120" viewBox="0 0 164 120" fill="none" xmlns="http://www.w3.org/2000/svg">
<g clip-path="url(#clip0_1590_2754)">
<path d="M143.895 61.9191C127.269 69.4687 133.56 78.0647 136.873 87.1306C139.393 94.0266 140.192 101.198 127.87 108.39L11.4835 107.603C5.91503 101.898 0.68469 96.0348 0.126853 89.0036C-0.640794 79.3487 2.19015 69.7283 5.52624 63.6712C19.7317 37.8769 60.3682 0.0981825 113.167 0.000159145C168.264 -0.101397 173.592 48.4308 143.895 61.9191Z" fill="url(#paint0_linear_1590_2754)"/>
<path d="M78.1418 10.4922H1.64763C1.0397 10.4922 0.546875 10.9299 0.546875 11.4698V57.5072C0.546875 58.0471 1.0397 58.4848 1.64763 58.4848H78.1418C78.7498 58.4848 79.2426 58.0471 79.2426 57.5072V11.4698C79.2426 10.9299 78.7498 10.4922 78.1418 10.4922Z" fill="url(#paint1_linear_1590_2754)"/>
<path d="M76.3509 12.5508H3.44634C3.08333 12.5508 2.78906 12.8121 2.78906 13.1345V55.8409C2.78906 56.1633 3.08333 56.4246 3.44634 56.4246H76.3509C76.7139 56.4246 77.0082 56.1633 77.0082 55.8409V13.1345C77.0082 12.8121 76.7139 12.5508 76.3509 12.5508Z" fill="white"/>
<path d="M141.938 52.8359L157.326 56.3418C158.449 56.5975 159.498 57.0588 160.408 57.6961C161.318 58.3334 162.067 59.1326 162.608 60.0423C163.15 60.9521 163.471 61.9523 163.551 62.9788C163.632 64.0053 163.469 65.0354 163.075 66.0028L152.368 92.266L115.797 79.991L130.55 51.2305L141.938 52.8359Z" fill="url(#paint2_linear_1590_2754)"/>
<path d="M122.758 63.5312C121.175 65.5046 119.876 67.6463 118.891 69.9063C117.338 73.5367 112.852 79.0092 112.852 79.0092L117.804 80.6712C117.804 80.6712 122.304 73.8996 122.758 72.1988C123.213 70.498 122.758 63.5312 122.758 63.5312Z" fill="url(#paint3_linear_1590_2754)"/>
<path d="M117.805 80.6701L135.645 86.6557L146.453 90.2826C146.453 90.2826 150.071 89.8764 150.331 87.9265C150.592 85.9766 149.557 69.2358 147.297 65.4518C145.038 61.6677 139.421 60.7714 139.421 60.7714C139.421 60.7714 135.096 63.7916 132.513 63.5328C129.931 63.2741 130.813 60.7714 130.813 60.7714L127.994 60.2539L124.727 60.8041L122.762 63.5328L117.805 80.6701Z" fill="url(#paint4_linear_1590_2754)"/>
<path d="M72.1875 66.3102C72.1875 66.3102 74.0002 71.0887 76.0854 70.7831C76.0854 69.7128 77.0092 66.7262 77.0092 66.7262L75.7662 64.0469L72.1875 66.3102Z" fill="url(#paint5_linear_1590_2754)"/>
<path d="M76.8978 64.5547L75.4609 72.1987L103.083 74.6732L101.903 64.9954L76.8978 64.5547Z" fill="url(#paint6_linear_1590_2754)"/>
<path d="M96.3612 67.0577C95.4007 67.1822 86.0447 67.0913 83.3281 66.7265C83.7497 64.0773 85.8011 51.0278 85.9592 46.2556C86.0368 43.8977 86.1133 40.8837 86.0875 38.2468C86.0875 38.0905 86.0875 37.9368 86.0805 37.7832C86.0805 37.6507 86.0805 37.5182 86.0726 37.3867C86.0726 37.3451 86.0726 37.3045 86.0726 37.263C86.0726 37.1747 86.0726 37.0864 86.0676 37.0034C86.0596 36.7976 86.0547 36.5954 86.0467 36.3958C86.0388 36.1962 86.0338 36.0267 86.0268 35.8474C86.0079 35.4942 85.988 35.1507 85.9642 34.8292C85.9562 34.7144 85.9463 34.6005 85.9363 34.4928C85.9304 34.4327 85.9254 34.3735 85.9204 34.3161C85.9155 34.2587 85.9075 34.2013 85.9025 34.1439C85.8975 34.0865 85.8896 34.0062 85.8797 33.9399C85.8737 33.8896 85.8667 33.8384 85.8608 33.788C85.8429 33.6388 85.822 33.4993 85.7991 33.3686C85.7941 33.3315 85.7862 33.2979 85.7812 33.2608C85.7504 33.0842 85.7166 32.9306 85.6818 32.7928C85.6659 32.738 85.651 32.6851 85.635 32.6347C85.6191 32.5844 85.6092 32.5588 85.5963 32.5243C85.5857 32.4899 85.5721 32.4562 85.5555 32.4237C85.5428 32.3935 85.5282 32.364 85.5117 32.3354C85.507 32.3221 85.5 32.3096 85.4909 32.2983C85.4851 32.2857 85.4771 32.274 85.467 32.2638L84.8883 27.5031C85.094 27.4938 85.3001 27.4938 85.5058 27.5031C85.5058 27.5031 91.1 27.6117 93.4109 27.526C93.8604 28.7809 94.3486 30.4756 93.9479 31.0443C93.3513 31.8912 92.2724 32.0378 92.9645 33.7898C92.9514 33.8139 92.9401 33.8386 92.9307 33.864C92.9193 33.89 92.9096 33.9165 92.9018 33.9435C92.8919 33.9717 92.8839 34.0009 92.876 34.0318C92.868 34.0627 92.8611 34.0918 92.8531 34.1201C92.5021 35.6461 96.3145 66.6912 96.3612 67.0577Z" fill="url(#paint7_linear_1590_2754)"/>
<path d="M85.9608 46.2573C85.8027 51.026 83.3675 66.5234 82.9469 69.1754C78.7009 68.6084 75.5796 67.6132 75.5796 67.6132L75.4583 43.5312L72.7576 49.5133L76.0848 63.8476L71.3705 66.829C68.9572 67.637 64.8544 52.7966 65.0792 49.4515C65.2969 46.1584 72.2157 33.9187 74.5395 31.5291C75.9466 30.0817 79.6684 28.9116 82.385 28.2148L79.6794 34.4345C79.6794 34.4345 81.9664 35.0403 82.5024 33.9735C83.0383 32.9067 84.3489 31.6828 85.3274 32.1411C85.3452 32.1489 85.3616 32.159 85.3761 32.1711C85.3943 32.1853 85.4107 32.2013 85.4248 32.2188C85.4389 32.2342 85.4518 32.2504 85.4636 32.2674C85.4737 32.2776 85.4817 32.2892 85.4874 32.3018C85.4966 32.3131 85.5036 32.3256 85.5083 32.3389C85.5248 32.3676 85.5394 32.397 85.5521 32.4272C85.567 32.459 85.5799 32.4917 85.5929 32.5279C85.6058 32.5641 85.6187 32.5994 85.6316 32.6383C85.6445 32.6771 85.6625 32.7416 85.6784 32.7963C85.7142 32.9341 85.748 33.0904 85.7778 33.2644C85.7778 33.3015 85.7907 33.335 85.7957 33.3721C85.8166 33.5055 85.8394 33.645 85.8573 33.7916C85.8633 33.8419 85.8703 33.8931 85.8762 33.9435C85.8832 34.0097 85.8912 34.0786 85.8991 34.1475C85.9071 34.2163 85.912 34.2596 85.917 34.3197C85.922 34.3797 85.927 34.4362 85.9329 34.4963C85.9429 34.6058 85.9508 34.7179 85.9608 34.8327C85.9846 35.1542 86.0045 35.4933 86.0234 35.8509C86.0304 36.0276 86.0383 36.2113 86.0433 36.3994C86.0483 36.5874 86.0562 36.8012 86.0642 37.0069C86.0642 37.0952 86.0642 37.1791 86.0691 37.2665C86.0691 37.3081 86.0691 37.3487 86.0691 37.3902C86.0691 37.5209 86.0692 37.6551 86.0771 37.7867C86.0771 37.9404 86.0771 38.094 86.0841 38.2503C86.1169 40.8855 86.0403 43.8995 85.9608 46.2573Z" fill="url(#paint8_linear_1590_2754)"/>
<path d="M125.323 59.9654L122.543 63.8263C122.473 63.9236 122.381 64.0066 122.272 64.0698C122.163 64.133 122.041 64.1751 121.912 64.1932C121.784 64.2113 121.653 64.205 121.527 64.1748C121.402 64.1446 121.285 64.0912 121.184 64.018L108.405 54.7287L101.799 46.3667L103.412 67.2881C103.412 67.2881 103.54 68.1173 96.6036 69.0118C96.5568 68.6445 92.5048 35.6451 92.8489 34.1244C92.8568 34.0926 92.8638 34.0626 92.8717 34.0361C92.8797 34.0096 92.8876 33.9769 92.8976 33.9478C92.9054 33.9208 92.915 33.8942 92.9264 33.8683C92.9359 33.8429 92.9472 33.8181 92.9602 33.7941C92.9741 33.7567 92.9921 33.7206 93.0139 33.6864C93.0234 33.667 93.0347 33.6484 93.0477 33.6307C93.0626 33.6086 93.0785 33.5857 93.0945 33.5645C93.1085 33.5426 93.1248 33.5219 93.1432 33.5027C93.1583 33.4842 93.1756 33.4674 93.1949 33.4523C93.195 33.4503 93.1958 33.4484 93.1973 33.4468C93.1987 33.4452 93.2006 33.4441 93.2028 33.4435C93.2197 33.4256 93.2387 33.4093 93.2595 33.3949C93.2781 33.3791 93.298 33.3646 93.3192 33.3517C93.3922 33.3015 93.4742 33.2627 93.5618 33.2369C93.6298 33.214 93.7011 33.2 93.7736 33.1954C93.8162 33.1908 93.859 33.1884 93.9019 33.1883C94.1956 33.1981 94.4827 33.2679 94.7411 33.3923L93.9456 31.838L100.102 32.8598L97.1037 28.3242C100.143 29.4987 104.136 31.7824 105.074 34.1288C106.45 37.5729 113.658 49.4531 113.658 49.4531L125.223 59.2219C125.334 59.3167 125.404 59.4425 125.422 59.5779C125.44 59.7134 125.405 59.8503 125.323 59.9654Z" fill="url(#paint9_linear_1590_2754)"/>
<path d="M22.7396 51.93C17.91 53.4047 14.4188 59.1148 16.3578 64.4769L22.6103 81.7529L57.2658 75.4088L41.8791 49.875L22.7396 51.93Z" fill="url(#paint10_linear_1590_2754)"/>
<path d="M85.7244 33.412C85.7127 33.3951 85.6997 33.3789 85.6856 33.3634C85.6709 33.3458 85.6542 33.3296 85.6359 33.3149C85.6216 33.3028 85.6052 33.2929 85.5872 33.2857C84.6087 32.8265 83.3002 34.0487 82.7622 35.1181C82.2243 36.1876 79.6797 34.4346 79.6797 34.4346L82.6409 29.3568L82.9501 28.6504L85.1258 26.9062L85.1338 28.8429L85.4659 32.271L85.7244 33.412Z" fill="url(#paint11_linear_1590_2754)"/>
<path d="M94.8812 32.6736L95.2094 33.7898C94.4944 33.5734 93.6383 33.3394 93.2028 33.7818C93.2006 33.7827 93.1986 33.784 93.1972 33.7857C93.1958 33.7874 93.195 33.7894 93.1948 33.7916C93.0919 33.8906 93.0122 34.0067 92.9601 34.1333C92.2641 32.3804 93.345 32.2338 93.9436 31.3878C94.3413 30.8191 93.8561 29.1244 93.4066 27.8695C93.1083 27.0421 92.8279 26.4062 92.8279 26.4062L95.6449 26.7392L97.1017 28.6634L100.676 33.0286C100.72 33.0813 100.744 33.1444 100.747 33.2096C100.749 33.2749 100.73 33.3393 100.691 33.3946C100.652 33.4499 100.595 33.4936 100.528 33.5199C100.46 33.5463 100.386 33.5542 100.313 33.5425L94.8812 32.6736Z" fill="url(#paint12_linear_1590_2754)"/>
<path d="M94.4835 32.2693L94.741 33.3908C94.4827 33.2664 94.1955 33.1966 93.9018 33.1868C93.8589 33.1869 93.8161 33.1893 93.7735 33.1938C93.701 33.1985 93.6297 33.2125 93.5617 33.2354C93.4741 33.2612 93.3921 33.3 93.3191 33.3502C93.2979 33.3631 93.278 33.3776 93.2594 33.3934C93.2386 33.4078 93.2196 33.4241 93.2028 33.442C93.2006 33.4426 93.1986 33.4437 93.1972 33.4453C93.1958 33.4469 93.1949 33.4488 93.1948 33.4508C93.1755 33.4659 93.1582 33.4827 93.1431 33.5012C93.1247 33.5204 93.1084 33.5411 93.0944 33.563C93.0785 33.5842 93.0626 33.6071 93.0476 33.6292C93.0346 33.6469 93.0233 33.6655 93.0138 33.6849C92.992 33.7191 92.974 33.7552 92.9601 33.7926C92.2641 32.0405 93.345 31.8939 93.9436 31.047C94.3413 30.4783 93.8561 28.7837 93.4066 27.5288C93.1083 26.7014 92.8279 26.0664 92.8279 26.0664L95.6449 26.3985L97.1017 28.3227L100.482 32.7894C100.52 32.8386 100.54 32.8967 100.54 32.9561C100.541 33.0155 100.521 33.0737 100.484 33.1232C100.447 33.1728 100.395 33.2115 100.333 33.2344C100.271 33.2574 100.203 33.2635 100.137 33.2521L94.4835 32.2693Z" fill="url(#paint13_linear_1590_2754)"/>
<path d="M85.1098 28.4767C85.1456 27.9362 85.2639 26.5453 85.3206 24.9266C85.3594 23.8051 85.3972 22.6456 85.427 21.7475C85.427 21.6698 85.427 21.5956 85.433 21.5223C85.4479 20.9977 85.433 20.1191 85.3922 20.0678C85.3683 20.0387 85.3445 20.0104 85.3246 19.9795C83.3806 17.5263 83.4612 15.7919 84.5291 15.1137C84.6703 15.0247 84.8254 14.9545 84.9895 14.9053C84.9895 14.9053 84.1532 11.6378 85.3654 8.82695C86.9693 5.10912 92.6998 4.54659 96.3033 5.13208C99.9069 5.71758 103.404 9.18019 102.604 12.7364C102.285 14.1494 101.709 15.4625 101.68 16.7306C101.651 17.9988 102.465 20.0246 101.616 22.1572C100.404 25.2154 96.9427 26.3193 94.772 26.5074C94.4948 26.5311 94.2162 26.5399 93.9378 26.5338L93.901 27.0637L93.8721 27.4982L93.8423 27.968C93.7727 29.0224 93.6554 29.2697 93.6554 29.2697C93.6554 29.2697 92.7833 31.6726 89.6779 31.5118C86.5725 31.3511 85.0263 29.788 85.1098 28.4767Z" fill="url(#paint14_linear_1590_2754)"/>
<path d="M85.4305 21.7518C87.7902 25.5668 91.2446 26.9294 93.8776 27.5069L93.9065 27.0725L93.9433 26.5426C91.4305 25.603 88.524 23.6955 85.3281 19.9883C85.348 20.0174 85.3719 20.0457 85.3957 20.0766C85.4335 20.1278 85.4514 21.0065 85.4365 21.531C85.4335 21.5999 85.4335 21.6741 85.4305 21.7518Z" fill="url(#paint15_linear_1590_2754)"/>
<path d="M86.2594 16.4889C86.2594 16.4889 85.5296 15.5228 84.9568 16.2239C84.3841 16.9251 85.1826 18.172 85.1826 18.172L86.2594 16.4889Z" fill="url(#paint16_linear_1590_2754)"/>
<path d="M84.8468 39.6455C85.3317 39.6455 85.7248 39.2964 85.7248 38.8657C85.7248 38.4351 85.3317 38.0859 84.8468 38.0859C84.3619 38.0859 83.9688 38.4351 83.9688 38.8657C83.9688 39.2964 84.3619 39.6455 84.8468 39.6455Z" fill="url(#paint17_linear_1590_2754)"/>
<path d="M84.6593 46.1884C85.1442 46.1884 85.5373 45.8393 85.5373 45.4087C85.5373 44.978 85.1442 44.6289 84.6593 44.6289C84.1743 44.6289 83.7812 44.978 83.7812 45.4087C83.7812 45.8393 84.1743 46.1884 84.6593 46.1884Z" fill="url(#paint18_linear_1590_2754)"/>
<path d="M83.964 52.8369C84.4489 52.8369 84.842 52.4878 84.842 52.0571C84.842 51.6265 84.4489 51.2773 83.964 51.2773C83.479 51.2773 83.0859 51.6265 83.0859 52.0571C83.0859 52.4878 83.479 52.8369 83.964 52.8369Z" fill="url(#paint19_linear_1590_2754)"/>
<path d="M83.089 60.2509C83.5739 60.2509 83.967 59.9018 83.967 59.4712C83.967 59.0405 83.5739 58.6914 83.089 58.6914C82.604 58.6914 82.2109 59.0405 82.2109 59.4712C82.2109 59.9018 82.604 60.2509 83.089 60.2509Z" fill="url(#paint20_linear_1590_2754)"/>
<path d="M81.7686 68.2861C82.2536 68.2861 82.6467 67.937 82.6467 67.5063C82.6467 67.0757 82.2536 66.7266 81.7686 66.7266C81.2837 66.7266 80.8906 67.0757 80.8906 67.5063C80.8906 67.937 81.2837 68.2861 81.7686 68.2861Z" fill="url(#paint21_linear_1590_2754)"/>
<path d="M93.7969 38.0863L95.7766 37.7578" stroke="url(#paint22_linear_1590_2754)" stroke-width="2" stroke-miterlimit="10"/>
<path d="M94.4766 44.6488L96.4563 44.3203" stroke="url(#paint23_linear_1590_2754)" stroke-width="2" stroke-miterlimit="10"/>
<path d="M95.4688 51.4416L97.5619 51.2773" stroke="url(#paint24_linear_1590_2754)" stroke-width="2" stroke-miterlimit="10"/>
<path d="M96.1172 58.7736L98.2103 58.6094" stroke="url(#paint25_linear_1590_2754)" stroke-width="2" stroke-miterlimit="10"/>
<path d="M97.1641 67.29L99.2572 66.8281" stroke="url(#paint26_linear_1590_2754)" stroke-width="2" stroke-miterlimit="10"/>
<path d="M102.232 65.2421L100.08 65.8152L96.1172 36.1159H101.371L100.748 33.9727" stroke="url(#paint27_linear_1590_2754)" stroke-miterlimit="10"/>
<path d="M69.875 63.8111L75.0526 60.8086" stroke="#1F1844" stroke-miterlimit="10"/>
<path d="M118.891 61.3341L121.986 57.1094" stroke="#1F1844" stroke-miterlimit="10"/>
<path d="M76.7362 40.8477L82.948 41.0843L82.7143 42.6041L79.4379 43.5314L76.5781 42.3754L76.7362 40.8477Z" fill="url(#paint28_linear_1590_2754)"/>
<path d="M76.7362 40.5039L82.948 40.7397L82.7143 42.2604L79.4379 43.1867L76.5781 42.0308L76.7362 40.5039Z" fill="url(#paint29_linear_1590_2754)"/>
<path d="M76.2344 30.3555L76.9891 37.2074L83.5847 37.1518C82.7295 52.0204 82.473 53.5358 80.9228 66.1093L77.0448 65.3357" stroke="url(#paint30_linear_1590_2754)" stroke-miterlimit="10"/>
<path d="M88.4496 17.3867L88.3094 18.2575C90.5377 19.3869 95.0173 22.627 95.9769 22.7612C97.195 22.9299 97.6027 21.6733 98.2639 21.9664C98.9252 22.2596 98.8247 23.0147 99.2812 23.0147C99.5188 23.0147 101.312 22.1192 101.822 21.5779C101.822 21.5779 101.201 23.3732 101.032 23.7476C100.634 24.6157 97.9368 26.7952 97.9368 26.7952C97.8175 26.8931 97.6757 26.9668 97.5212 27.0113C97.3667 27.0558 97.2031 27.0701 97.0419 27.0531L94.1662 26.7669L92.7204 26.026C90.7048 25.0687 86.6388 21.2979 86.6219 20.7822C86.5861 19.7225 86.7582 18.7688 86.9481 17.9281L88.4496 17.3867Z" fill="#1F1844"/>
<path d="M160.825 95.059C154.859 124.289 75.0273 120.942 42.0622 118.38C24.1547 116.989 1.98943 110.935 0.141904 89.2121C0.135938 89.1423 0.129972 89.0717 0.125 89.001V85.8342L85.7226 69.9023L160.825 95.059Z" fill="url(#paint31_linear_1590_2754)"/>
<g style="mix-blend-mode:multiply" opacity="0.5">
<path d="M45.4413 110.549C49.8357 110.549 53.3981 108.963 53.3981 107.007C53.3981 105.051 49.8357 103.465 45.4413 103.465C41.0468 103.465 37.4844 105.051 37.4844 107.007C37.4844 108.963 41.0468 110.549 45.4413 110.549Z" fill="#BFC3DB"/>
</g>
<g style="mix-blend-mode:multiply" opacity="0.5">
<path d="M22.1366 97.9475C26.531 97.9475 30.0934 96.3616 30.0934 94.4054C30.0934 92.4491 26.531 90.8633 22.1366 90.8633C17.7421 90.8633 14.1797 92.4491 14.1797 94.4054C14.1797 96.3616 17.7421 97.9475 22.1366 97.9475Z" fill="#BFC3DB"/>
</g>
<g style="mix-blend-mode:multiply" opacity="0.5">
<path d="M89.0907 86.875L88.3359 87.449L115.792 98.1998L135.111 90.04L89.0907 86.875Z" fill="#BBBFD9"/>
</g>
<path d="M85.7656 67.6406L89.0908 85.8359L116.346 95.6674L112.049 75.1981L85.7656 67.6406Z" fill="url(#paint32_linear_1590_2754)"/>
<path d="M122.758 63.5334C122.758 63.5334 123.707 64.7476 124.482 65.206C125.257 65.6643 126.462 66.7417 126.635 67.2927C126.808 67.8438 128.012 66.7734 127.194 65.6263C126.375 64.4792 125.43 63.7921 125.687 63.3303C125.945 62.8684 128.313 60.5406 130.809 60.7693C133.305 60.998 131.326 58.8203 130.207 58.8203C129.087 58.8203 125.047 60.3525 125.047 60.3525L122.758 63.5334Z" fill="url(#paint33_linear_1590_2754)"/>
<path d="M141.544 75.1992L141.931 84.545L135.64 86.6565L133.711 86.0092L140.317 83.9145C140.317 83.9145 141.223 75.314 141.544 75.1992Z" fill="url(#paint34_linear_1590_2754)"/>
<path d="M116.346 95.6688L135.11 88.7118L113.242 80.8867L116.346 95.6688Z" fill="url(#paint35_linear_1590_2754)"/>
<path d="M139.024 46.7676C138.485 47.7841 137.115 48.8641 137.068 49.1908C136.504 50.2346 135.241 52.5077 134.408 53.6425C133.308 55.1438 130.026 55.3901 128.83 53.9198C127.634 52.4494 124.963 50.6214 124.963 50.6214C124.963 50.6214 123.486 49.5211 123.627 48.9356C123.767 48.3501 126.819 47.3973 127.03 46.2113C127.13 45.6673 126.953 45.1374 126.818 44.582C126.661 43.9311 126.561 43.2423 127.017 42.4475C127.021 42.4412 127.025 42.4347 127.028 42.4281C127.295 41.9698 128.334 41.9495 129.699 42.1773C130.054 42.2347 130.433 42.3115 130.825 42.4007C133.798 43.0763 137.586 44.5201 138.748 45.2425C139.367 45.6346 139.329 46.1901 139.024 46.7676Z" fill="url(#paint36_linear_1590_2754)"/>
<path d="M140.574 46.086L138.585 49.1415L135.708 48.4756L134.854 45.806L128.652 44.3701L126.82 44.5883C126.663 43.9374 126.562 43.2486 127.019 42.4538L129.703 42.1836L130.829 42.407L138.002 43.8314L140.574 46.086Z" fill="url(#paint37_linear_1590_2754)"/>
<path d="M139.459 50.5994C138.564 50.799 137.413 51.2512 136.874 52.1599C136.448 52.9025 136.285 53.7416 136.403 54.5681C136.324 54.5407 136.279 54.5212 136.279 54.5212C136.279 54.5212 135.155 57.8929 134.1 58.6621C133.602 59.025 131.638 59.0418 129.568 58.8996C127.228 58.7424 124.751 58.3777 124.114 58.0801C122.921 57.5185 123.482 55.6445 124.114 54.8957C124.278 54.6972 124.403 54.4761 124.486 54.2413C125.409 54.5583 126.773 54.9478 126.998 54.5831C127.262 54.1609 125.617 53.0668 124.486 52.5246C124.447 52.4343 124.393 52.3495 124.326 52.2729C123.834 51.7104 124.958 50.6268 124.958 50.6268C124.958 50.6268 127.63 52.4522 128.825 53.9234C130.021 55.3946 133.3 55.1456 134.404 53.647C135.236 52.5122 136.499 50.2391 137.064 49.1953C137.064 49.2474 137.053 49.2748 137.053 49.2748C137.053 49.2748 138.238 50.3239 139.459 50.5994Z" fill="#1F1844"/>
<path d="M126.996 54.5819C126.768 54.9466 125.405 54.5572 124.484 54.2402C124.701 53.6529 124.701 52.9782 124.484 52.5234C125.615 53.0657 127.261 54.1598 126.996 54.5819Z" fill="url(#paint38_linear_1590_2754)"/>
<path d="M140.363 53.9238C140.215 54.206 139.985 54.4481 139.697 54.625C139.637 54.9394 139.556 55.3704 139.477 55.8684L139.312 56.9414C139.113 58.3243 138.966 59.8768 139.097 60.7855C139.378 62.7 131.853 64.8239 130.379 64.1412C129.338 63.6573 129.379 61.1387 129.495 59.6966C129.521 59.3611 129.552 59.0838 129.573 58.9018C131.644 59.044 133.609 59.0255 134.105 58.6634C134.353 58.4824 134.602 58.1565 134.844 57.7671C135.627 56.4963 136.285 54.5217 136.285 54.5217C136.285 54.5217 136.264 52.9048 136.709 52.1497C137.24 51.2392 138.338 50.5999 139.239 50.4003C139.28 50.4091 139.758 50.3932 139.802 50.4003C141.068 50.6255 141.419 52.0225 140.363 53.9238Z" fill="url(#paint39_linear_1590_2754)"/>
<path d="M131.721 34.2583L131.613 34.6998L130.587 34.3996L130.317 34.5912L130.019 34.5673V34.2583L127.022 33.875V34.3784L125.729 34.1629C125.729 34.1629 125.431 34.6186 125.324 34.5099C125.311 34.4957 125.295 34.4842 125.276 34.4764C125.257 34.4685 125.237 34.4644 125.216 34.4644C125.195 34.4644 125.175 34.4685 125.156 34.4764C125.137 34.4842 125.121 34.4957 125.108 34.5099V34.7139L127.43 35.1458L127.322 35.6756L128.672 35.892C128.672 35.892 129.51 35.6041 129.468 35.892C129.426 36.1799 128.456 36.02 128.267 36.02C128.078 36.02 128.078 36.4916 128.078 36.4916C128.078 36.4916 127.321 36.3477 127.214 36.3477C127.106 36.3477 127.159 36.4916 126.674 36.4916C126.189 36.4916 126.135 36.2452 126.135 36.2452L123.921 36.1975V36.4854C123.921 36.4854 122.652 36.4369 122.517 36.6771C122.383 36.9173 124.246 36.6771 124.246 36.6771V36.9888L125.14 37.1804C125.14 37.1804 123.169 38.0918 122.682 38.8583C122.73 38.8556 122.777 38.8613 122.822 38.8751C122.867 38.8889 122.909 38.9105 122.944 38.9387C122.944 38.9387 121.828 39.7617 122.179 40.6969C122.378 40.4408 122.467 40.3375 122.467 40.3375L124.348 40.553L124.213 40.945L122.35 41.3045L122.34 41.7522C122.34 41.7522 121.009 41.9041 121.089 42.3836C121.17 42.8631 122.791 42.2397 122.791 42.2397C122.764 42.4427 122.821 42.6476 122.953 42.8154C122.791 43.1113 121.738 44.5896 121.738 44.5896H122.089C122.089 44.5896 121.252 45.9566 121.467 46.7002C121.787 45.8876 122.204 45.1078 122.71 44.3741H122.872L124.411 42.8154L128.939 43.3683L133.424 39.2301L134.035 34.6009L131.721 34.2583ZM128.141 39.6301L126.55 39.7502L126.352 39.3184C126.352 39.3184 124.083 39.6186 123.975 39.495C123.867 39.3714 123.975 39.8783 123.975 39.8783L122.583 39.7944L123.434 38.7876L123.691 38.9643L124.998 38.3629L125.567 38.098L125.635 38.4097L124.892 38.6252L124.622 38.7329L124.69 39.0808L126.634 38.8159L126.675 38.9837H126.433C126.433 38.9837 126.595 39.3202 126.69 39.3202C126.784 39.3202 128.688 39.2318 128.688 39.2318L128.141 39.6301Z" fill="#1F1844"/>
<path d="M142.506 38.5456L142.009 38.6499L141.874 37.6979L141.563 37.5636L141.463 37.3146L141.781 37.1813L140.886 34.6124L140.374 34.8278L140.037 33.6957C140.037 33.6957 139.441 33.6533 139.509 33.5191C139.519 33.5024 139.525 33.4839 139.525 33.4651C139.526 33.4463 139.521 33.4276 139.512 33.4105C139.503 33.3934 139.49 33.3784 139.474 33.3666C139.457 33.3548 139.438 33.3466 139.417 33.3425L139.209 33.4308L139.767 35.4787L139.184 35.6182L139.543 36.7945C139.543 36.7945 140.196 37.342 139.885 37.433C139.575 37.5239 139.32 36.6761 139.24 36.5242C139.159 36.3724 138.679 36.5746 138.679 36.5746C138.679 36.5746 138.501 35.907 138.454 35.8195C138.408 35.7321 138.285 35.8381 138.077 35.4486C137.868 35.0592 138.088 34.9126 138.088 34.9126L137.188 33.1155L136.895 33.2391C136.895 33.2391 136.398 32.2006 136.1 32.1953C135.801 32.19 136.842 33.5809 136.842 33.5809L136.524 33.7151L136.712 34.5099C136.712 34.5099 134.939 33.3195 133.95 33.2586C133.973 33.2953 133.988 33.3358 133.993 33.3777C133.998 33.4195 133.994 33.4619 133.981 33.5023C133.981 33.5023 132.664 32.9601 131.864 33.6427C132.209 33.6922 132.353 33.7195 132.353 33.7195L132.941 35.3215L132.484 35.3815L131.32 34.041L130.86 34.2256C130.86 34.2256 130.135 33.2224 129.681 33.4935C129.228 33.7646 130.557 34.796 130.557 34.796C130.339 34.8612 130.155 34.9954 130.041 35.1731C129.671 35.1731 127.715 34.9594 127.715 34.9594L127.865 35.2411C127.865 35.2411 126.116 35.1528 125.453 35.6482C126.417 35.5565 127.388 35.5565 128.352 35.6482L128.421 35.7789L130.668 36.3441L134.138 40.9962L138.18 42.0356L143.152 40.5397L142.506 38.5456ZM135.508 37.9805L134.703 36.7539L135.055 36.4059C135.055 36.4059 133.776 34.7157 133.852 34.577C133.927 34.4384 133.462 34.7422 133.462 34.7422L132.951 33.5941L134.343 33.8441L134.27 34.1267L135.443 34.9214L135.954 35.2658L135.665 35.4531L135.127 34.9506L134.902 34.7801L134.576 34.9832L135.676 36.4209L135.523 36.5251L135.424 36.3308C135.424 36.3308 135.151 36.6046 135.192 36.6841C135.233 36.7636 136.135 38.2507 136.135 38.2507L135.508 37.9805Z" fill="#1F1844"/>
<path d="M140.289 37.9463L141.5 37.5312L141.77 37.9463C141.77 37.9463 143.25 37.5789 143.46 37.7388C143.67 37.8986 143.622 38.0417 143.622 38.0417L145.344 38.2324L145.156 38.4479C145.156 38.4479 145.694 38.8064 145.614 38.8064C145.37 38.8265 145.127 38.8584 144.887 38.9018C144.806 38.9265 144.29 38.9018 144.29 38.9018L144.156 39.1411L143.726 39.2612C143.726 39.2612 144.856 39.3089 144.99 39.6675C145.125 40.026 146.767 39.9324 146.633 40.2167C146.572 40.3706 146.459 40.5041 146.31 40.5991C146.31 40.5991 147.628 40.9338 147.575 41.1016C147.521 41.2694 147.144 41.3409 147.144 41.3409L146.364 41.2447C146.364 41.2447 146.256 41.5317 146.39 41.6995C146.525 41.8672 147.252 42.2293 147.252 42.2293L147.225 42.4686C147.225 42.4686 147.791 42.7795 147.737 42.9941L147.682 43.2095C147.682 43.2095 148.302 43.7836 148.279 43.9266C148.256 44.0697 147.875 44.0944 147.875 44.0944C147.875 44.0944 147.902 44.309 147.741 44.3328C147.58 44.3567 147.309 44.2375 147.309 44.2375L146.959 44.3364L146.556 44.0467C146.556 44.0467 147.909 45.7634 147.611 45.8588L147.312 45.9542C147.312 45.9542 148.201 47.4846 147.771 47.4846C147.34 47.4846 147.259 47.3813 147.259 47.3813L146.828 46.4099L146.424 46.5291L145.886 45.7405L144.284 45.7882L143.14 43.7323L140.289 37.9463Z" fill="#1F1844"/>
<path d="M142.836 41.0348C142.615 40.9367 142.836 40.4466 143.057 40.1517C143.152 40.0447 143.228 39.9256 143.283 39.7984C143.108 39.9874 142.996 40.1137 142.996 40.1137C142.996 40.1137 142.933 39.4072 142.896 38.7405C142.765 38.731 142.635 38.7124 142.507 38.6849C140.139 38.2636 137.978 37.6251 135.771 37.1668C135.712 37.1641 135.654 37.1522 135.6 37.1315C134.421 36.8834 133.221 36.7219 132.012 36.6484C131.737 38.9931 130.313 41.2626 128.93 43.3732C130.87 43.903 134.36 44.7596 134.36 44.7596L139.458 45.89L134.235 45.3107L133.975 46.4455L137.481 47.2023L136.372 50.4609L137.916 50.9528C137.916 50.9528 139.137 50.0979 140.027 50.7603C140.917 51.4226 140.568 53.512 139.455 54.7342C139.532 55.7056 139.233 56.9313 139.233 56.9313C139.233 56.9313 142.698 51.4482 144.106 50.1827C145.514 48.9172 145.965 47.3303 145.982 46.6707C145.993 46.2485 146.56 45.4599 147.059 44.8162C145.536 43.6681 144.49 42.181 142.836 41.0348Z" fill="#1F1844"/>
<path d="M86.0938 32.0391C86.0938 32.0391 89.3751 33.5403 92.0907 32.1989" stroke="white" stroke-miterlimit="10"/>
<path d="M85.4639 32.2716C85.4521 32.2547 85.4392 32.2385 85.4251 32.2231C85.411 32.2056 85.3946 32.1896 85.3764 32.1754C85.3619 32.1633 85.3455 32.1531 85.3277 32.1454C84.3492 31.687 83.0406 32.9092 82.5027 33.9778C81.9647 35.0463 79.6797 34.4387 79.6797 34.4387L81.4198 27.9727L85.3277 25.6484L85.1139 28.6607L85.4639 32.2716Z" fill="url(#paint40_linear_1590_2754)"/>
<path d="M83.5859 37.1523L86.0659 37.0039" stroke="url(#paint41_linear_1590_2754)" stroke-miterlimit="10"/>
<path d="M96.1182 36.1172L92.9531 36.6479" stroke="url(#paint42_linear_1590_2754)" stroke-miterlimit="10"/>
<path d="M116.352 95.6679V96.9802L135.116 90.0409V88.7109L116.352 95.6679Z" fill="#C8CCE0"/>
<path d="M116.349 96.9797L89.0938 86.8753V85.8359L116.349 95.6674V96.9797Z" fill="#C8CCE0"/>
<path d="M98.2088 83.0007C99.4977 83.0007 100.543 82.0728 100.543 80.9281C100.543 79.7834 99.4977 78.8555 98.2088 78.8555C96.9199 78.8555 95.875 79.7834 95.875 80.9281C95.875 82.0728 96.9199 83.0007 98.2088 83.0007Z" fill="white"/>
<path d="M128.141 62.4258C128.141 62.4258 128.42 64.9982 130.077 65.4645C132.724 66.2098 139.237 63.1296 139.237 63.1296" stroke="white" stroke-miterlimit="10"/>
<path d="M91.5347 104.61L70.2295 108.241L58.6094 98.6475L71.7717 96.6914L75.782 103.234L88.4173 102.466L91.5347 104.61Z" fill="url(#paint43_linear_1590_2754)"/>
<path d="M92.1362 104.079L70.832 107.709L59.2109 98.1162L72.3733 96.1602L76.3836 102.703L89.0189 101.935L92.1362 104.079Z" fill="#D5527E"/>
<path d="M53.4208 105.888C53.4208 108.462 50.3581 110.548 46.5786 110.548C42.799 110.548 39.7344 108.462 39.7344 105.888C39.7344 105.001 40.0993 104.171 40.7287 103.465V103.476C40.7287 104.159 43.3469 104.713 46.5766 104.713C49.8063 104.713 52.4244 104.159 52.4244 103.476V103.466C53.0585 104.148 53.4101 105.003 53.4208 105.888Z" fill="url(#paint44_linear_1590_2754)"/>
<path d="M52.4222 103.467V103.478C52.4222 104.16 49.8041 104.714 46.5744 104.714C43.3447 104.714 40.7266 104.16 40.7266 103.478V103.466C40.7345 103.29 40.9165 103.122 41.2397 102.969C42.1565 102.541 44.1989 102.242 46.5714 102.242C48.944 102.242 50.9854 102.541 51.9032 102.969C52.2313 103.12 52.4153 103.29 52.4222 103.467Z" fill="url(#paint45_linear_1590_2754)"/>
<path d="M46.7966 104.004C46.5619 104.004 46.2656 103.998 45.9255 103.974H45.8649C44.1088 103.845 41.2431 103.268 39.5169 100.923C39.3364 100.679 39.1743 100.425 39.0316 100.161C38.745 99.6283 38.5255 99.0689 38.3773 98.4931C37.7807 96.2209 34.5491 94.6675 33.4453 94.4309C33.8172 93.2528 38.4688 93.7836 41.3296 95.314C42.1669 95.7617 42.851 96.296 43.2308 96.8956L43.5868 98.2485C43.6857 98.9908 43.9005 99.7172 44.2252 100.407C44.3874 100.759 44.5703 101.103 44.7731 101.438C45.1639 102.086 45.6146 102.705 46.1204 103.287C46.5172 103.743 46.7966 104.004 46.7966 104.004Z" fill="url(#paint46_linear_1590_2754)"/>
<path d="M45.6699 103.474C45.6699 103.474 42.1001 101.626 41.416 99.1065C40.7319 96.5871 38.5463 94.8889 36.2891 94.6602" stroke="white" stroke-width="0.68" stroke-miterlimit="10"/>
<path d="M46.8005 104C46.8005 104 44.7968 96.7588 47.1923 94.8769C49.5877 92.995 53.0411 92.3027 56.0063 93.7289C52.4266 93.9188 51.4322 96.0859 51.6659 98.056C51.8797 99.862 49.1969 104.498 46.8005 104Z" fill="#D5527E"/>
<path d="M46.7969 104.003C50.4949 101.075 44.6023 96.3803 53.4203 93.543" stroke="white" stroke-width="0.65" stroke-miterlimit="10"/>
<path d="M43.5884 98.2458C42.1705 98.4851 38.4724 97.1508 38.548 96.2271C38.6176 95.381 41.6713 96.031 43.2325 96.8911L43.5884 98.2458Z" fill="url(#paint47_linear_1590_2754)"/>
<path d="M44.7738 101.436C43.7904 101.847 40.7964 101.512 39.5176 100.918C39.1875 100.766 38.9727 100.597 38.93 100.42C38.9171 100.372 38.9196 100.322 38.9372 100.275C38.9547 100.228 38.9867 100.187 39.0294 100.155C39.6429 99.6454 42.6976 99.8512 44.2229 100.404C44.3862 100.756 44.57 101.101 44.7738 101.436Z" fill="url(#paint48_linear_1590_2754)"/>
<path d="M40.2339 90.3195C40.8991 89.318 45.68 93.4492 44.8438 94.3561C44.0075 95.263 39.6005 91.2732 40.2339 90.3195Z" fill="url(#paint49_linear_1590_2754)"/>
<path d="M38.9307 95.9889C39.0302 94.8223 44.7975 96.4993 44.4991 97.6517C44.2008 98.8042 38.8442 97.0998 38.9307 95.9889Z" fill="url(#paint50_linear_1590_2754)"/>
<path d="M49.6374 90.8192C50.6606 91.5257 45.6122 95.391 44.7123 94.5353C43.8124 93.6796 48.6639 90.1454 49.6374 90.8192Z" fill="url(#paint51_linear_1590_2754)"/>
<path d="M49.1519 95.7654C50.011 96.6273 45.1377 98.7962 44.4058 97.8186C43.674 96.841 48.3335 94.9389 49.1519 95.7654Z" fill="url(#paint52_linear_1590_2754)"/>
<path d="M44.7864 89.9844C44.7864 89.9844 44.9336 92.9692 44.4881 95.5752C44.0426 98.1812 45.1663 102.591 46.9939 104" stroke="url(#paint53_linear_1590_2754)" stroke-width="0.98" stroke-miterlimit="10"/>
<path d="M38.9292 100.216C38.6766 99.1461 45.0396 99.7625 45.0942 100.865C45.1489 101.967 39.1728 101.241 38.9292 100.216Z" fill="url(#paint54_linear_1590_2754)"/>
<path d="M49.3811 98.4644C50.0404 99.4552 45.4822 101.928 44.9512 100.849C44.4202 99.7696 48.7527 97.5204 49.3811 98.4644Z" fill="url(#paint55_linear_1590_2754)"/>
<path d="M46.4015 85.6961C47.6852 85.7844 46.0236 91.5245 44.7548 91.2596C43.486 90.9947 45.1774 85.6202 46.4015 85.6961Z" fill="url(#paint56_linear_1590_2754)"/>
<path d="M139.458 54.7305L139.309 56.9382C139.305 56.9442 139.303 56.9504 139.301 56.9567L139.21 57.1652C135.651 59.7067 132.129 59.9566 129.492 59.6908C129.518 59.3552 129.549 59.0779 129.57 58.896C131.641 59.0382 133.606 59.0196 134.102 58.6576C134.35 58.4765 134.599 58.1507 134.841 57.7612C136.692 57.1931 138.303 56.1355 139.458 54.7305Z" fill="url(#paint57_linear_1590_2754)"/>
<path d="M51.0611 41.5499C44.8632 36.7344 36.3535 42.433 34.8042 48.6297C34.3548 50.3076 33.9203 52.8844 33.5563 55.4295C32.9756 59.4917 47.2367 58.2554 47.4177 58.3817C47.5987 58.508 48.3723 60.2176 50.4257 60.887C57.6189 56.5175 56.36 46.0458 51.0611 41.5499Z" fill="url(#paint58_linear_1590_2754)"/>
<g style="mix-blend-mode:multiply" opacity="0.5">
<path d="M100.543 101.876L88.641 102.598L76.0056 103.367L71.9954 96.8239L70.4531 94.3079L89.3042 93.0469L100.543 101.876Z" fill="#BFC3DB"/>
</g>
<path d="M100.917 101.213L89.015 101.935L76.3796 102.704L72.3694 96.1607L70.8281 93.6448L89.6792 92.3828L100.917 101.213Z" fill="url(#paint59_linear_1590_2754)"/>
<path d="M57.4602 73.2143L57.9206 75.2939L65.1794 74.6758L72.5337 72.582L63.1091 71.056C63.1091 71.056 57.9385 62.6745 55.7916 59.8177C55.1135 58.9152 53.0909 58.69 52.2656 58.3633L57.4602 73.2143Z" fill="#FFC727"/>
<g style="mix-blend-mode:multiply" opacity="0.5">
<path d="M58.6953 87.433H84.5189L84.6094 86.3177L59.1865 85.6562L58.6953 87.433Z" fill="#BFC3DB"/>
</g>
<path d="M59.1016 86.8762H84.9251L85.0166 85.7617H59.1791L59.1016 86.8762Z" fill="#CF507A"/>
<path d="M60.0498 73.1172L59.1797 85.7631H85.0172L86.0453 73.1172H60.0498Z" fill="#D5527E"/>
<path d="M55.5116 80.5206C55.5116 80.5206 54.6703 80.8359 54.369 81.1803L54.1016 84.0353C54.1016 84.0353 56.1032 85.0191 57.6037 85.3997C58.2998 85.5764 59.3936 85.6947 60.4436 85.7662C61.6577 85.8475 63.2378 85.9428 63.1791 85.5269C63.1254 85.1463 60.9994 85.2814 60.9279 85.0271C60.8563 84.7727 64.2868 84.8602 64.2868 84.3842C64.2868 83.9082 60.8205 84.2888 60.8205 84.0671C60.8205 83.8455 65.0724 83.8808 65.0733 83.4322C65.0733 82.8608 60.7976 83.2653 60.8921 82.8926C60.9497 82.6745 64.8238 82.7337 64.788 82.2895C64.7522 81.8453 62.6431 82.036 61.3564 81.9362C60.0697 81.8365 58.7482 81.3649 58.5553 80.8571C58.3624 80.3493 61.428 79.7462 61.1068 79.3656C60.7857 78.9849 55.5116 80.5136 55.5116 80.5136" fill="url(#paint60_linear_1590_2754)"/>
<path d="M48.3828 57.1165C50.5525 57.0203 52.7182 57.5528 54.4554 58.7061C55.1674 59.1726 55.7888 59.7394 56.2949 60.384C57.8859 62.4398 58.6396 69.2414 57.9257 75.2844L43.1872 77.9072C44.1577 78.2604 52.3354 80.2606 55.75 80.3799C53.82 81.3318 54.4633 84.3785 54.4633 84.3785C46.4557 84.2266 37.2827 83.5987 35.6967 77.9999C34.4876 73.7266 33.8134 67.4284 33.7597 64.8418C33.6871 61.3404 35.7126 59.4452 37.7372 58.5454C39.7617 57.6455 44.3566 57.2931 44.3566 57.2931L48.3828 57.1165Z" fill="#EBB721"/>
<path d="M54.6791 42.8944C54.6453 43.2265 54.5985 43.5568 54.5468 43.8809C54.0497 42.1924 50.808 40.2796 47.1329 40.5781C47.1329 40.5781 47.1329 40.9728 46.4368 41.0823C45.7408 41.1918 45.4425 40.4271 45.2854 41.0823C45.1283 41.7376 45.1332 42.6233 44.291 42.6233C43.4488 42.6233 42.9088 43.1011 42.8333 43.5753C42.7577 44.0495 44.1846 45.768 43.4687 46.1893C42.6503 46.6714 42.0587 48.4738 42.0587 48.4738C42.0587 48.4738 41.4213 44.288 38.8827 46.7403C38.7047 47.1898 38.5515 47.6437 38.4253 48.0959C38.3069 47.4397 38.4978 46.9284 38.9055 46.6026C39.0203 46.5102 39.15 46.4337 39.2904 46.3756C38.8928 45.2613 38.6856 44.1004 38.6758 42.9315C38.6699 42.2622 38.7595 41.5948 38.9423 40.9455C39.9466 37.5014 44.9692 36.4964 48.2356 36.696C51.5021 36.8956 54.9913 39.6676 54.6791 42.8944Z" fill="url(#paint61_linear_1590_2754)"/>
<path d="M40.4456 52.4102C42.9683 55.5894 46.1871 56.491 48.5894 56.7701L48.5656 56.3824L48.5387 55.9064C46.203 55.2953 43.4088 53.8594 40.1562 50.8516C40.1781 50.8754 40.202 50.8993 40.2269 50.9222C40.2656 50.9646 40.38 51.7426 40.4257 52.2098C40.4307 52.2751 40.4396 52.3413 40.4456 52.4102Z" fill="url(#paint62_linear_1590_2754)"/>
<path d="M40.5892 47.6661C40.5892 47.6661 39.8335 46.8713 39.403 47.5433C38.9724 48.2153 39.8226 49.2521 39.8226 49.2521L40.5892 47.6661Z" fill="url(#paint63_linear_1590_2754)"/>
<path d="M41.3516 60.2531C41.3516 60.2531 48.4752 64.8505 50.2183 64.5564C51.9614 64.2623 50.6051 58.3633 50.6051 58.3633" stroke="white" stroke-miterlimit="10"/>
<path d="M59.7288 55.353C60.4616 56.766 59.9863 58.6929 58.977 59.7296C58.0821 60.6419 58.2621 61.744 57.5282 62.31C56.0437 60.2895 54.7013 58.4871 52.3417 57.6747C56.5567 53.5648 50.6512 46.1459 50.2177 44.6482L42.05 49.2526C42.05 49.2526 44.4763 54.5944 41.1859 58.4368C40.4899 59.2492 37.4551 64.4286 34.3099 63.1013C32.4306 62.3065 33.6616 60.6896 33.2161 60.2507C31.6858 58.7494 30.0202 57.1598 30.8028 55.9191C31.5854 54.6783 31.29 55.2674 30.5522 54.5106C29.8144 53.7537 30.1415 52.6808 30.7103 51.9831C31.2791 51.2855 29.9248 49.2358 30.7511 48.4287C32.5071 46.7137 32.1173 44.9908 31.9055 44.3877C31.6937 43.7845 32.3212 43.2529 32.8174 42.9359C33.3135 42.6188 33.4548 41.8585 33.3623 40.6239C33.2698 39.3894 34.47 38.946 34.826 38.629C35.7507 37.7963 35.702 37.4183 35.9546 36.5211C36.407 34.9156 39.3652 34.9227 41.0576 34.8935C42.7302 34.8635 42.2578 32.7582 46.1885 33.6016C46.816 33.7376 47.6652 34.9174 49.7573 34.5332C51.9628 34.1279 54.4626 35.9983 54.3155 36.9299C54.1683 37.8616 57.0629 37.9225 57.2767 40.8465C57.2826 40.9233 57.2896 41.0081 57.2985 41.0981C57.3844 41.9359 57.688 42.7446 58.1855 43.4604C58.3851 43.7527 58.5517 44.0618 58.6827 44.3832C59.1659 45.571 58.3088 46.7676 58.6737 47.8026C59.0387 48.8376 59.7099 50.3971 58.9651 51.9319C58.1099 53.684 59.3956 54.7093 59.7288 55.353Z" fill="url(#paint64_linear_1590_2754)"/>
<path d="M54.8645 51.3446C54.1336 54.1705 51.1854 55.4528 49.2782 55.8122C49.0952 55.8449 48.9222 55.8696 48.7621 55.8855C48.6845 55.897 48.6119 55.9041 48.5423 55.9085L48.5682 56.3862L48.6169 56.9938L48.6587 57.5325L50.017 62.5917C50.0547 62.7319 50.0435 62.879 49.985 63.0135C49.9264 63.148 49.8231 63.2634 49.6889 63.3446C49.5548 63.4257 49.396 63.4687 49.2336 63.4678C49.0713 63.467 48.9131 63.4223 48.78 63.3397C46.0554 61.6512 41.2417 59.2942 41.1881 58.4403C41.1881 58.4403 40.9066 57.1404 40.5218 53.1868C40.498 52.9386 40.4751 52.6816 40.4492 52.4141C40.4413 52.3452 40.4333 52.2781 40.4284 52.2145C40.4154 52.0811 40.3955 51.9204 40.3747 51.7597C40.323 51.3605 40.2583 50.9552 40.2295 50.9252C40.2044 50.9031 40.1811 50.8795 40.1599 50.8545C39.0939 49.7851 38.559 48.8473 38.4297 48.1002C38.5023 47.8352 38.5848 47.5765 38.6753 47.3177C38.8253 46.8503 39.1609 46.4468 39.6199 46.1821C41.552 45.1224 42.0631 48.4781 42.0631 48.4781C42.0631 48.4781 48.5911 47.2789 50.2059 40.5064C50.5927 40.412 51.6776 40.3572 52.6918 40.9921C53.4585 41.4699 54.1834 42.3406 54.5483 43.8825C54.4011 44.8045 54.2231 45.6875 54.3086 46.5203C54.423 47.6515 55.3776 49.3736 54.8645 51.3446Z" fill="url(#paint65_linear_1590_2754)"/>
<path d="M52.6942 40.9896C51.6919 43.306 50.0999 45.4651 46.9468 47.0582C43.4665 48.8191 42.0625 48.4712 42.0625 48.4712C42.0625 48.4712 48.5905 47.2719 50.2053 40.4995C50.5921 40.4094 51.677 40.3547 52.6942 40.9896Z" fill="url(#paint66_linear_1590_2754)"/>
<path d="M48.5685 56.3843L48.6173 56.9919C46.1493 56.727 43.19 55.8262 40.5222 53.1849C40.4983 52.9367 40.4754 52.6798 40.4496 52.4122C40.4416 52.3433 40.4337 52.2762 40.4287 52.2126C40.4158 52.0793 40.3959 51.9185 40.375 51.7578C43.6385 54.0998 46.4147 55.322 48.7624 55.8836C48.6849 55.8951 48.6123 55.9022 48.5427 55.9066L48.5685 56.3843Z" fill="url(#paint67_linear_1590_2754)"/>
<path d="M23.2745 97.4589C27.5553 97.4589 31.0255 96.2815 31.0255 94.8291C31.0255 93.3766 27.5553 92.1992 23.2745 92.1992C18.9937 92.1992 15.5234 93.3766 15.5234 94.8291C15.5234 96.2815 18.9937 97.4589 23.2745 97.4589Z" fill="#2D2E64"/>
<path d="M23.2745 96.5136C27.5553 96.5136 31.0255 95.3362 31.0255 93.8838C31.0255 92.4313 27.5553 91.2539 23.2745 91.2539C18.9937 91.2539 15.5234 92.4313 15.5234 93.8838C15.5234 95.3362 18.9937 96.5136 23.2745 96.5136Z" fill="url(#paint68_linear_1590_2754)"/>
<path d="M23.2754 93.8818L17.1094 84.5546L23.6831 74.6719" stroke="url(#paint69_linear_1590_2754)" stroke-width="4.15" stroke-miterlimit="10"/>
<path d="M33.5091 74.4817L26.6212 80.2607L21.885 74.8738C21.2675 74.1711 20.9671 73.2891 21.0427 72.4003C21.1183 71.5114 21.5643 70.6795 22.2937 70.0671C23.0236 69.455 23.9844 69.1068 24.9881 69.0904C25.9918 69.0741 26.9663 69.3909 27.7209 69.9788L33.5091 74.4817Z" fill="url(#paint70_linear_1590_2754)"/>
</g>
<defs>
<linearGradient id="paint0_linear_1590_2754" x1="-0.00340812" y1="54.1947" x2="161.784" y2="54.1947" gradientUnits="userSpaceOnUse">
<stop stop-color="#F0F2F5"/>
<stop offset="0.99" stop-color="#F5F7F8"/>
</linearGradient>
<linearGradient id="paint1_linear_1590_2754" x1="0.546875" y1="34.4885" x2="79.2426" y2="34.4885" gradientUnits="userSpaceOnUse">
<stop offset="0.01" stop-color="#BBBFD9"/>
<stop offset="1" stop-color="#D6DBF8"/>
</linearGradient>
<linearGradient id="paint2_linear_1590_2754" x1="158.036" y1="76.6362" x2="126.517" y2="60.7699" gradientUnits="userSpaceOnUse">
<stop offset="0.01" stop-color="#BBBFD9"/>
<stop offset="0.29" stop-color="#CACDE2"/>
<stop offset="0.84" stop-color="#F2F3F8"/>
<stop offset="1" stop-color="white"/>
</linearGradient>
<linearGradient id="paint3_linear_1590_2754" x1="123.323" y1="74.2467" x2="117.105" y2="69.9925" gradientUnits="userSpaceOnUse">
<stop offset="0.32" stop-color="#9C9C9C"/>
<stop offset="0.5" stop-color="#ABABAB"/>
<stop offset="0.86" stop-color="#D3D3D3"/>
<stop offset="0.91" stop-color="#D9D9D9"/>
</linearGradient>
<linearGradient id="paint4_linear_1590_2754" x1="117.805" y1="75.2665" x2="150.367" y2="75.2665" gradientUnits="userSpaceOnUse">
<stop offset="0.09" stop-color="#D9D9D9"/>
<stop offset="0.12" stop-color="#D6D6D6"/>
<stop offset="0.7" stop-color="#AEAEAE"/>
<stop offset="1" stop-color="#9F9F9F"/>
</linearGradient>
<linearGradient id="paint5_linear_1590_2754" x1="72.1875" y1="67.4221" x2="77.0092" y2="67.4221" gradientUnits="userSpaceOnUse">
<stop stop-color="#753200"/>
<stop offset="1" stop-color="#A04400"/>
</linearGradient>
<linearGradient id="paint6_linear_1590_2754" x1="89.3323" y1="73.6788" x2="88.6929" y2="67.3414" gradientUnits="userSpaceOnUse">
<stop stop-color="#464B8B"/>
<stop offset="0.28" stop-color="#393C76"/>
<stop offset="0.74" stop-color="#27275A"/>
<stop offset="1" stop-color="#201F4F"/>
</linearGradient>
<linearGradient id="paint7_linear_1590_2754" x1="83.3281" y1="47.3029" x2="96.3612" y2="47.3029" gradientUnits="userSpaceOnUse">
<stop offset="0.09" stop-color="#E6E6E6"/>
<stop offset="1" stop-color="#DEDEDE"/>
</linearGradient>
<linearGradient id="paint8_linear_1590_2754" x1="65.0662" y1="48.6947" x2="86.097" y2="48.6947" gradientUnits="userSpaceOnUse">
<stop stop-color="#201F4F"/>
<stop offset="0.26" stop-color="#27275A"/>
<stop offset="0.72" stop-color="#393C76"/>
<stop offset="1" stop-color="#464B8B"/>
</linearGradient>
<linearGradient id="paint9_linear_1590_2754" x1="92.828" y1="48.6654" x2="125.428" y2="48.6654" gradientUnits="userSpaceOnUse">
<stop stop-color="#464B8B"/>
<stop offset="0.28" stop-color="#393C76"/>
<stop offset="0.74" stop-color="#27275A"/>
<stop offset="1" stop-color="#201F4F"/>
</linearGradient>
<linearGradient id="paint10_linear_1590_2754" x1="19.1241" y1="70.2038" x2="47.5914" y2="58.9072" gradientUnits="userSpaceOnUse">
<stop offset="0.01" stop-color="#BBBFD9"/>
<stop offset="0.29" stop-color="#CACDE2"/>
<stop offset="0.84" stop-color="#F2F3F8"/>
<stop offset="1" stop-color="white"/>
</linearGradient>
<linearGradient id="paint11_linear_1590_2754" x1="82.7791" y1="35.2921" x2="82.55" y2="30.1003" gradientUnits="userSpaceOnUse">
<stop stop-color="#464B8B"/>
<stop offset="0.28" stop-color="#393C76"/>
<stop offset="0.74" stop-color="#27275A"/>
<stop offset="1" stop-color="#201F4F"/>
</linearGradient>
<linearGradient id="paint12_linear_1590_2754" x1="92.7354" y1="30.2698" x2="100.746" y2="30.2698" gradientUnits="userSpaceOnUse">
<stop stop-color="#464B8B"/>
<stop offset="0.28" stop-color="#393C76"/>
<stop offset="0.74" stop-color="#27275A"/>
<stop offset="1" stop-color="#201F4F"/>
</linearGradient>
<linearGradient id="paint13_linear_1590_2754" x1="92.7354" y1="29.9273" x2="100.542" y2="29.9273" gradientUnits="userSpaceOnUse">
<stop stop-color="#201F4F"/>
<stop offset="0.26" stop-color="#27275A"/>
<stop offset="0.72" stop-color="#393C76"/>
<stop offset="1" stop-color="#464B8B"/>
</linearGradient>
<linearGradient id="paint14_linear_1590_2754" x1="108.038" y1="23.0131" x2="85.8022" y2="14.3575" gradientUnits="userSpaceOnUse">
<stop stop-color="#753200"/>
<stop offset="1" stop-color="#A04400"/>
</linearGradient>
<linearGradient id="paint15_linear_1590_2754" x1="84.9512" y1="21.2496" x2="92.637" y2="28.1824" gradientUnits="userSpaceOnUse">
<stop stop-color="#A04400"/>
<stop offset="1" stop-color="#753200"/>
</linearGradient>
<linearGradient id="paint16_linear_1590_2754" x1="84.4235" y1="16.4556" x2="85.4167" y2="17.3513" gradientUnits="userSpaceOnUse">
<stop stop-color="#753200"/>
<stop offset="1" stop-color="#A04400"/>
</linearGradient>
<linearGradient id="paint17_linear_1590_2754" x1="83.9688" y1="38.8657" x2="85.7248" y2="38.8657" gradientUnits="userSpaceOnUse">
<stop stop-color="#464B8B"/>
<stop offset="0.28" stop-color="#393C76"/>
<stop offset="0.74" stop-color="#27275A"/>
<stop offset="1" stop-color="#201F4F"/>
</linearGradient>
<linearGradient id="paint18_linear_1590_2754" x1="83.7812" y1="45.4087" x2="85.5383" y2="45.4087" gradientUnits="userSpaceOnUse">
<stop stop-color="#464B8B"/>
<stop offset="0.28" stop-color="#393C76"/>
<stop offset="0.74" stop-color="#27275A"/>
<stop offset="1" stop-color="#201F4F"/>
</linearGradient>
<linearGradient id="paint19_linear_1590_2754" x1="83.0859" y1="52.0571" x2="84.843" y2="52.0571" gradientUnits="userSpaceOnUse">
<stop stop-color="#464B8B"/>
<stop offset="0.28" stop-color="#393C76"/>
<stop offset="0.74" stop-color="#27275A"/>
<stop offset="1" stop-color="#201F4F"/>
</linearGradient>
<linearGradient id="paint20_linear_1590_2754" x1="82.2109" y1="59.4712" x2="83.967" y2="59.4712" gradientUnits="userSpaceOnUse">
<stop stop-color="#464B8B"/>
<stop offset="0.28" stop-color="#393C76"/>
<stop offset="0.74" stop-color="#27275A"/>
<stop offset="1" stop-color="#201F4F"/>
</linearGradient>
<linearGradient id="paint21_linear_1590_2754" x1="80.8906" y1="67.5063" x2="82.6467" y2="67.5063" gradientUnits="userSpaceOnUse">
<stop stop-color="#464B8B"/>
<stop offset="0.28" stop-color="#393C76"/>
<stop offset="0.74" stop-color="#27275A"/>
<stop offset="1" stop-color="#201F4F"/>
</linearGradient>
<linearGradient id="paint22_linear_1590_2754" x1="93.779" y1="37.9221" x2="95.7945" y2="37.9221" gradientUnits="userSpaceOnUse">
<stop stop-color="#464B8B"/>
<stop offset="0.28" stop-color="#393C76"/>
<stop offset="0.74" stop-color="#27275A"/>
<stop offset="1" stop-color="#201F4F"/>
</linearGradient>
<linearGradient id="paint23_linear_1590_2754" x1="94.4577" y1="44.4846" x2="96.4742" y2="44.4846" gradientUnits="userSpaceOnUse">
<stop stop-color="#464B8B"/>
<stop offset="0.28" stop-color="#393C76"/>
<stop offset="0.74" stop-color="#27275A"/>
<stop offset="1" stop-color="#201F4F"/>
</linearGradient>
<linearGradient id="paint24_linear_1590_2754" x1="95.4598" y1="51.3595" x2="97.5708" y2="51.3595" gradientUnits="userSpaceOnUse">
<stop stop-color="#464B8B"/>
<stop offset="0.28" stop-color="#393C76"/>
<stop offset="0.74" stop-color="#27275A"/>
<stop offset="1" stop-color="#201F4F"/>
</linearGradient>
<linearGradient id="paint25_linear_1590_2754" x1="96.1082" y1="58.6915" x2="98.2183" y2="58.6915" gradientUnits="userSpaceOnUse">
<stop stop-color="#464B8B"/>
<stop offset="0.28" stop-color="#393C76"/>
<stop offset="0.74" stop-color="#27275A"/>
<stop offset="1" stop-color="#201F4F"/>
</linearGradient>
<linearGradient id="paint26_linear_1590_2754" x1="97.1402" y1="67.0595" x2="99.2811" y2="67.0595" gradientUnits="userSpaceOnUse">
<stop stop-color="#464B8B"/>
<stop offset="0.28" stop-color="#393C76"/>
<stop offset="0.74" stop-color="#27275A"/>
<stop offset="1" stop-color="#201F4F"/>
</linearGradient>
<linearGradient id="paint27_linear_1590_2754" x1="96.0615" y1="49.9169" x2="102.246" y2="49.9169" gradientUnits="userSpaceOnUse">
<stop stop-color="#201F4F"/>
<stop offset="0.26" stop-color="#27275A"/>
<stop offset="0.72" stop-color="#393C76"/>
<stop offset="1" stop-color="#464B8B"/>
</linearGradient>
<linearGradient id="paint28_linear_1590_2754" x1="79.6557" y1="43.9005" x2="79.8377" y2="39.2447" gradientUnits="userSpaceOnUse">
<stop stop-color="#201F4F"/>
<stop offset="0.26" stop-color="#27275A"/>
<stop offset="0.72" stop-color="#393C76"/>
<stop offset="1" stop-color="#464B8B"/>
</linearGradient>
<linearGradient id="paint29_linear_1590_2754" x1="79.6557" y1="43.5568" x2="79.8377" y2="38.9001" gradientUnits="userSpaceOnUse">
<stop stop-color="#464B8B"/>
<stop offset="0.28" stop-color="#393C76"/>
<stop offset="0.74" stop-color="#27275A"/>
<stop offset="1" stop-color="#201F4F"/>
</linearGradient>
<linearGradient id="paint30_linear_1590_2754" x1="76.1847" y1="48.2575" x2="83.6374" y2="48.2575" gradientUnits="userSpaceOnUse">
<stop stop-color="#464B8B"/>
<stop offset="0.28" stop-color="#393C76"/>
<stop offset="0.74" stop-color="#27275A"/>
<stop offset="1" stop-color="#201F4F"/>
</linearGradient>
<linearGradient id="paint31_linear_1590_2754" x1="80.4744" y1="120.221" x2="80.4744" y2="72.3406" gradientUnits="userSpaceOnUse">
<stop offset="0.31" stop-color="white"/>
<stop offset="0.44" stop-color="#ECEDF4"/>
<stop offset="0.69" stop-color="#CACDE2"/>
<stop offset="0.99" stop-color="#BBBFD9"/>
</linearGradient>
<linearGradient id="paint32_linear_1590_2754" x1="100.196" y1="88.4331" x2="101.829" y2="72.1065" gradientUnits="userSpaceOnUse">
<stop offset="0.01" stop-color="#BBBFD9"/>
<stop offset="0.29" stop-color="#CACDE2"/>
<stop offset="0.84" stop-color="#F2F3F8"/>
<stop offset="1" stop-color="white"/>
</linearGradient>
<linearGradient id="paint33_linear_1590_2754" x1="129.82" y1="63.6879" x2="124.529" y2="60.5721" gradientUnits="userSpaceOnUse">
<stop stop-color="#A04400"/>
<stop offset="1" stop-color="#753200"/>
</linearGradient>
<linearGradient id="paint34_linear_1590_2754" x1="133.713" y1="80.9278" x2="141.933" y2="80.9278" gradientUnits="userSpaceOnUse">
<stop stop-color="#C2C2C2"/>
<stop offset="1" stop-color="#BDBDBD"/>
</linearGradient>
<linearGradient id="paint35_linear_1590_2754" x1="116.756" y1="96.7683" x2="122.379" y2="85.2687" gradientUnits="userSpaceOnUse">
<stop offset="0.01" stop-color="#BBBFD9"/>
<stop offset="0.29" stop-color="#CACDE2"/>
<stop offset="0.84" stop-color="#F2F3F8"/>
<stop offset="1" stop-color="white"/>
</linearGradient>
<linearGradient id="paint36_linear_1590_2754" x1="141.502" y1="56.0321" x2="129.646" y2="43.4977" gradientUnits="userSpaceOnUse">
<stop stop-color="#753200"/>
<stop offset="1" stop-color="#A04400"/>
</linearGradient>
<linearGradient id="paint37_linear_1590_2754" x1="129.803" y1="46.3668" x2="134.567" y2="45.2203" gradientUnits="userSpaceOnUse">
<stop stop-color="#A04400" stop-opacity="0"/>
<stop offset="0.18" stop-color="#9A4100" stop-opacity="0.14"/>
<stop offset="0.52" stop-color="#8A3B00" stop-opacity="0.52"/>
<stop offset="0.9" stop-color="#753200"/>
</linearGradient>
<linearGradient id="paint38_linear_1590_2754" x1="124.484" y1="53.6264" x2="127.024" y2="53.6264" gradientUnits="userSpaceOnUse">
<stop stop-color="#753200"/>
<stop offset="1" stop-color="#A04400"/>
</linearGradient>
<linearGradient id="paint39_linear_1590_2754" x1="137.579" y1="59.2277" x2="126.169" y2="47.1658" gradientUnits="userSpaceOnUse">
<stop stop-color="#753200"/>
<stop offset="1" stop-color="#A04400"/>
</linearGradient>
<linearGradient id="paint40_linear_1590_2754" x1="85.4569" y1="29.4546" x2="81.2878" y2="31.1911" gradientUnits="userSpaceOnUse">
<stop stop-color="#464B8B"/>
<stop offset="0.28" stop-color="#393C76"/>
<stop offset="0.74" stop-color="#27275A"/>
<stop offset="1" stop-color="#201F4F"/>
</linearGradient>
<linearGradient id="paint41_linear_1590_2754" x1="83.582" y1="37.0781" x2="86.0689" y2="37.0781" gradientUnits="userSpaceOnUse">
<stop stop-color="#201F4F"/>
<stop offset="0.26" stop-color="#27275A"/>
<stop offset="0.72" stop-color="#393C76"/>
<stop offset="1" stop-color="#464B8B"/>
</linearGradient>
<linearGradient id="paint42_linear_1590_2754" x1="92.9442" y1="36.3821" x2="96.1271" y2="36.3821" gradientUnits="userSpaceOnUse">
<stop stop-color="#464B8B"/>
<stop offset="0.28" stop-color="#393C76"/>
<stop offset="0.74" stop-color="#27275A"/>
<stop offset="1" stop-color="#201F4F"/>
</linearGradient>
<linearGradient id="paint43_linear_1590_2754" x1="58.6094" y1="102.466" x2="91.5347" y2="102.466" gradientUnits="userSpaceOnUse">
<stop offset="0.01" stop-color="#BBBFD9"/>
<stop offset="0.77" stop-color="#CACDE1"/>
<stop offset="1" stop-color="#D0D2E4"/>
</linearGradient>
<linearGradient id="paint44_linear_1590_2754" x1="40.1301" y1="107.829" x2="53.1572" y2="104.458" gradientUnits="userSpaceOnUse">
<stop stop-color="#ABAAEA"/>
<stop offset="1" stop-color="#E7EEFE"/>
</linearGradient>
<linearGradient id="paint45_linear_1590_2754" x1="40.7266" y1="103.477" x2="52.4222" y2="103.477" gradientUnits="userSpaceOnUse">
<stop stop-color="#CDCCFF"/>
<stop offset="0.89" stop-color="#8988D5"/>
</linearGradient>
<linearGradient id="paint46_linear_1590_2754" x1="33.4453" y1="98.8958" x2="46.7966" y2="98.8958" gradientUnits="userSpaceOnUse">
<stop stop-color="#201F4F"/>
<stop offset="0.26" stop-color="#27275A"/>
<stop offset="0.72" stop-color="#393C76"/>
<stop offset="1" stop-color="#464B8B"/>
</linearGradient>
<linearGradient id="paint47_linear_1590_2754" x1="43.8669" y1="97.8307" x2="39.0591" y2="95.9461" gradientUnits="userSpaceOnUse">
<stop stop-color="#1F1844"/>
<stop offset="0.99" stop-color="#3D3C99"/>
</linearGradient>
<linearGradient id="paint48_linear_1590_2754" x1="44.8285" y1="101.034" x2="38.9184" y2="100.238" gradientUnits="userSpaceOnUse">
<stop stop-color="#1F1844"/>
<stop offset="0.99" stop-color="#3D3C99"/>
</linearGradient>
<linearGradient id="paint49_linear_1590_2754" x1="41.4348" y1="93.3271" x2="42.6201" y2="91.9751" gradientUnits="userSpaceOnUse">
<stop stop-color="#E0E4EB"/>
<stop offset="0.99" stop-color="#F3F6FD"/>
</linearGradient>
<linearGradient id="paint50_linear_1590_2754" x1="41.2348" y1="98.1488" x2="41.7102" y2="96.4795" gradientUnits="userSpaceOnUse">
<stop stop-color="#E0E4EB"/>
<stop offset="0.99" stop-color="#F3F6FD"/>
</linearGradient>
<linearGradient id="paint51_linear_1590_2754" x1="45.8553" y1="91.8487" x2="46.8957" y2="93.2991" gradientUnits="userSpaceOnUse">
<stop stop-color="#E0E4EB"/>
<stop offset="0.99" stop-color="#F3F6FD"/>
</linearGradient>
<linearGradient id="paint52_linear_1590_2754" x1="45.8453" y1="96.3018" x2="46.6749" y2="97.9003" gradientUnits="userSpaceOnUse">
<stop stop-color="#E0E4EB"/>
<stop offset="0.99" stop-color="#F3F6FD"/>
</linearGradient>
<linearGradient id="paint53_linear_1590_2754" x1="44.0673" y1="97.388" x2="46.6289" y2="96.702" gradientUnits="userSpaceOnUse">
<stop stop-color="#E0E4EB"/>
<stop offset="0.99" stop-color="#F3F6FD"/>
</linearGradient>
<linearGradient id="paint54_linear_1590_2754" x1="41.3885" y1="101.555" x2="41.4475" y2="99.8942" gradientUnits="userSpaceOnUse">
<stop stop-color="#E0E4EB"/>
<stop offset="0.99" stop-color="#F3F6FD"/>
</linearGradient>
<linearGradient id="paint55_linear_1590_2754" x1="46.9017" y1="98.8207" x2="47.5274" y2="100.683" gradientUnits="userSpaceOnUse">
<stop stop-color="#E0E4EB"/>
<stop offset="0.99" stop-color="#F3F6FD"/>
</linearGradient>
<linearGradient id="paint56_linear_1590_2754" x1="46.314" y1="85.8454" x2="45.1559" y2="91.1775" gradientUnits="userSpaceOnUse">
<stop stop-color="#E6EAF1"/>
<stop offset="0.99" stop-color="#F3F6FD"/>
</linearGradient>
<linearGradient id="paint57_linear_1590_2754" x1="133.533" y1="58.1004" x2="146.939" y2="52.9629" gradientUnits="userSpaceOnUse">
<stop stop-color="#753200"/>
<stop offset="1" stop-color="#A04400"/>
</linearGradient>
<linearGradient id="paint58_linear_1590_2754" x1="43.5059" y1="58.4656" x2="46.1994" y2="41.843" gradientUnits="userSpaceOnUse">
<stop offset="0.38" stop-color="#201F4F"/>
<stop offset="0.54" stop-color="#27275A"/>
<stop offset="0.83" stop-color="#393C76"/>
<stop offset="1" stop-color="#464B8B"/>
</linearGradient>
<linearGradient id="paint59_linear_1590_2754" x1="70.8271" y1="97.5436" x2="100.917" y2="97.5436" gradientUnits="userSpaceOnUse">
<stop stop-color="white"/>
<stop offset="0.16" stop-color="#F2F3F8"/>
<stop offset="0.71" stop-color="#CACDE2"/>
<stop offset="0.99" stop-color="#BBBFD9"/>
</linearGradient>
<linearGradient id="paint60_linear_1590_2754" x1="54.1016" y1="82.5721" x2="65.0733" y2="82.5721" gradientUnits="userSpaceOnUse">
<stop stop-color="#753200"/>
<stop offset="1" stop-color="#A04400"/>
</linearGradient>
<linearGradient id="paint61_linear_1590_2754" x1="31.5065" y1="47.7117" x2="50.1619" y2="37.9881" gradientUnits="userSpaceOnUse">
<stop stop-color="#753200"/>
<stop offset="1" stop-color="#A04400"/>
</linearGradient>
<linearGradient id="paint62_linear_1590_2754" x1="40.1302" y1="52.5591" x2="47.8074" y2="58.0384" gradientUnits="userSpaceOnUse">
<stop stop-color="#A04400"/>
<stop offset="1" stop-color="#753200"/>
</linearGradient>
<linearGradient id="paint63_linear_1590_2754" x1="39.1241" y1="48.3196" x2="40.1154" y2="49.0269" gradientUnits="userSpaceOnUse">
<stop stop-color="#753200"/>
<stop offset="1" stop-color="#A04400"/>
</linearGradient>
<linearGradient id="paint64_linear_1590_2754" x1="30.1226" y1="48.3607" x2="60.0837" y2="48.3607" gradientUnits="userSpaceOnUse">
<stop stop-color="#201F4F"/>
<stop offset="0.26" stop-color="#27275A"/>
<stop offset="0.72" stop-color="#393C76"/>
<stop offset="1" stop-color="#464B8B"/>
</linearGradient>
<linearGradient id="paint65_linear_1590_2754" x1="54.4946" y1="52.8168" x2="38.2673" y2="48.7458" gradientUnits="userSpaceOnUse">
<stop stop-color="#753200"/>
<stop offset="1" stop-color="#A04400"/>
</linearGradient>
<linearGradient id="paint66_linear_1590_2754" x1="50.0045" y1="43.2053" x2="41.2064" y2="47.9159" gradientUnits="userSpaceOnUse">
<stop offset="0.1" stop-color="#753200"/>
<stop offset="0.48" stop-color="#8A3B00" stop-opacity="0.52"/>
<stop offset="0.82" stop-color="#9A4100" stop-opacity="0.14"/>
<stop offset="1" stop-color="#A04400" stop-opacity="0"/>
</linearGradient>
<linearGradient id="paint67_linear_1590_2754" x1="38.9381" y1="52.1119" x2="46.9535" y2="57.1258" gradientUnits="userSpaceOnUse">
<stop stop-color="#A04400"/>
<stop offset="1" stop-color="#753200"/>
</linearGradient>
<linearGradient id="paint68_linear_1590_2754" x1="23.2745" y1="98.618" x2="23.2745" y2="92.5335" gradientUnits="userSpaceOnUse">
<stop stop-color="#201F4F"/>
<stop offset="0.26" stop-color="#27275A"/>
<stop offset="0.72" stop-color="#393C76"/>
<stop offset="1" stop-color="#464B8B"/>
</linearGradient>
<linearGradient id="paint69_linear_1590_2754" x1="20.3659" y1="93.9745" x2="20.3659" y2="74.5792" gradientUnits="userSpaceOnUse">
<stop stop-color="#201F4F"/>
<stop offset="0.26" stop-color="#27275A"/>
<stop offset="0.72" stop-color="#393C76"/>
<stop offset="1" stop-color="#464B8B"/>
</linearGradient>
<linearGradient id="paint70_linear_1590_2754" x1="30.5149" y1="77.5042" x2="23.6753" y2="69.3564" gradientUnits="userSpaceOnUse">
<stop stop-color="#201F4F"/>
<stop offset="0.26" stop-color="#27275A"/>
<stop offset="0.72" stop-color="#393C76"/>
<stop offset="1" stop-color="#464B8B"/>
</linearGradient>
<clipPath id="clip0_1590_2754">
<rect width="163.575" height="120" fill="white"/>
</clipPath>
</defs>
</svg>
