<svg width="212" height="120" viewBox="0 0 212 120" fill="none" xmlns="http://www.w3.org/2000/svg">
<g clip-path="url(#clip0_1590_2861)">
<path d="M16.1974 119.633C16.1974 119.633 -8.88068 89.4246 3.37239 58.3255C11.3612 38.0538 41.3254 26.9461 58.2402 38.0538C65.443 42.7849 88.5526 38.2134 100.891 18.627C124.872 -19.4341 208.554 3.68068 193.319 62.1178C185.947 90.3976 215.757 91.4214 200.568 119.693L16.1974 119.633Z" fill="#EBF3FA"/>
<path d="M34.7577 69.9137C34.7577 69.9137 32.2285 66.9632 34.6018 65.0887C34.6018 65.0887 36.3354 64.0395 37.7484 64.1245C37.7484 64.1245 35.7456 67.4799 36.3936 67.8169C37.0416 68.154 38.3561 63.912 38.3561 63.912C38.3561 63.912 42.3005 63.5295 43.5696 64.1357C43.5696 64.1357 40.1971 66.8946 40.9077 67.0594C41.6183 67.2242 45.2607 64.5153 45.2607 64.5153C45.2607 64.5153 48.9322 65.1401 48.7361 67.38C48.54 69.6199 47.2754 70.3111 46.7229 70.2514C46.1704 70.1918 42.9142 68.9503 42.8456 69.4059C42.777 69.8615 44.7328 71.3505 46.104 71.4191C46.104 71.4191 43.5152 74.2742 41.795 73.4502C40.0748 72.6263 39.9309 71.3207 38.8557 70.8308C37.7805 70.3409 36.8678 70.3417 37.31 70.8412C37.7521 71.3408 39.696 71.8262 40.3074 72.9111C40.9189 73.996 41.4706 74.7275 39.6908 74.4598C37.911 74.1921 35.0179 72.8895 34.8904 71.3982L34.7577 69.9137Z" fill="#C8DBF4"/>
<path d="M46.9329 67.4471C46.9329 67.4471 36.9607 67.0623 34.7581 69.9144C34.7581 69.9144 34.2712 71.3728 32.7724 72.7016L32.5391 73.3383C32.5391 73.3383 34.2667 71.516 34.8848 71.4056C34.8819 71.4056 33.9155 67.8728 46.9329 67.4471Z" fill="#C8DBF4"/>
<path d="M32.7735 72.7038C32.7735 72.7038 30.6328 74.2868 30.4844 77.115L30.8729 77.15C30.8729 77.15 31.5566 74.2249 32.7921 73.0818C34.0276 71.9387 32.7735 72.7038 32.7735 72.7038Z" fill="#C8DBF4"/>
<path d="M25.9139 66.2036C25.9139 66.2036 29.9366 63.951 28.0591 60.8932C28.0591 60.8932 26.5573 59.0157 24.9483 58.5332C24.9483 58.5332 25.8065 63.0928 24.9483 63.2002C24.09 63.3076 24.3577 58.0501 24.3577 58.0501C24.3577 58.0501 20.1202 56.0093 18.4575 56.1725C18.4575 56.1725 21.0858 60.6248 20.2276 60.5174C19.3694 60.41 16.4189 55.9041 16.4189 55.9041C16.4189 55.9041 12.0733 55.0996 11.3762 57.675C10.679 60.2504 11.8056 61.5367 12.4491 61.6977C13.0926 61.8588 17.2212 61.8051 17.1161 62.342C17.0109 62.8788 14.2193 63.7363 12.6639 63.2539C12.6639 63.2539 14.3788 67.4913 16.6329 67.2766C18.887 67.0618 19.5834 65.6675 20.9785 65.5616C22.3736 65.4557 23.3921 65.8301 22.6934 66.2051C21.9948 66.5802 19.6363 66.3289 18.5089 67.2863C17.3815 68.2437 16.4711 68.8342 18.5626 69.263C20.6541 69.6917 24.4099 69.424 25.1608 67.8149L25.9139 66.2036Z" fill="#C8DBF4"/>
<path d="M13.3672 58.4805C13.3672 58.4805 24.6323 62.1281 25.92 66.2045C25.92 66.2045 25.8663 68.0291 26.9922 70.1206V70.9229C26.9922 70.9229 25.8126 68.1864 25.1684 67.8114C25.1677 67.8144 27.6901 64.2741 13.3672 58.4805Z" fill="#C8DBF4"/>
<path d="M26.9848 70.1216C26.9848 70.1216 28.7221 72.7597 27.7304 75.9711L27.283 75.8511C27.283 75.8511 27.717 72.3145 26.8081 70.5355C25.8991 68.7564 26.9848 70.1216 26.9848 70.1216Z" fill="#C8DBF4"/>
<path d="M32.3146 63.0983C32.3146 63.0983 27.0109 60.1284 29.4864 56.0983C29.4864 56.0983 31.4668 53.6227 33.5874 52.9867C33.5874 52.9867 32.4556 58.9973 33.5874 59.139C34.7193 59.2806 34.3651 52.3499 34.3651 52.3499C34.3651 52.3499 39.9515 49.6656 42.1436 49.8752C42.1436 49.8752 38.6787 55.7441 39.8098 55.6032C40.9409 55.4622 44.8309 49.524 44.8309 49.524C44.8309 49.524 50.5582 48.4637 51.4775 51.8578C52.3969 55.252 50.9116 56.949 50.0608 57.1608C49.21 57.3726 43.7676 57.3025 43.9093 58.0093C44.051 58.7162 47.7277 59.8481 49.7782 59.2113C49.7782 59.2113 47.5152 64.7976 44.5453 64.515C41.5755 64.2324 40.6561 62.3937 38.8181 62.252C36.9801 62.1103 35.6357 62.6054 36.5551 63.1005C37.4744 63.5956 40.5815 63.2631 42.0728 64.5255C43.5641 65.7878 44.7571 66.5655 42.002 67.1315C39.2468 67.6974 34.2943 67.3447 33.3048 65.2197L32.3146 63.0983Z" fill="#D4E4F8"/>
<path d="M48.8616 52.9141C48.8616 52.9141 34.0122 57.7242 32.3151 63.0965C32.3151 63.0965 32.3897 65.5012 30.8984 68.2585V69.3196C30.8984 69.3196 32.4538 65.7129 33.3031 65.2186C33.3054 65.2178 29.9813 60.5509 48.8616 52.9141Z" fill="#D4E4F8"/>
<path d="M30.9022 68.2593C30.9022 68.2593 28.6123 71.737 29.918 75.9699L30.507 75.8119C30.507 75.8119 29.9351 71.1494 31.1333 68.8029C32.3316 66.4563 30.9022 68.2593 30.9022 68.2593Z" fill="#D4E4F8"/>
<path d="M32.1382 85.1507C34.8936 85.1507 37.536 84.0561 39.4843 82.1078C41.4327 80.1595 42.5272 77.517 42.5272 74.7617H21.75C21.75 77.5169 22.8444 80.1593 24.7926 82.1076C26.7407 84.0559 29.383 85.1505 32.1382 85.1507Z" fill="#D4E4F8"/>
<path d="M22.8911 84.3984H41.3919C41.7318 84.3984 42.0579 84.5335 42.2982 84.7739C42.5386 85.0142 42.6736 85.3402 42.6736 85.6802H21.6094C21.6094 85.3402 21.7444 85.0142 21.9848 84.7739C22.2252 84.5335 22.5512 84.3984 22.8911 84.3984Z" fill="#D4E4F8"/>
<path d="M42.7613 74.7617H21.4062V75.0801H42.7613V74.7617Z" fill="#9FC1F4"/>
<path d="M85.7402 119.416H85.7917C86.2115 119.409 86.5373 119.066 86.4963 118.671L83.6935 90.7031L81.25 90.9216L85.2712 119.038C85.2897 119.148 85.3476 119.246 85.434 119.316C85.5204 119.386 85.6294 119.421 85.7402 119.416Z" fill="#8CB4F4"/>
<path d="M58.783 119.415H58.7316C58.3118 119.408 57.9859 119.065 58.0269 118.67L60.8275 90.7031L63.271 90.9216L59.2498 119.037C59.2312 119.146 59.1736 119.245 59.0877 119.314C59.0018 119.384 58.8935 119.42 58.783 119.415Z" fill="#8CB4F4"/>
<path d="M105.502 119.416H105.554C105.973 119.409 106.299 119.066 106.258 118.671L103.459 90.7031L101.016 90.9216L105.037 119.038C105.055 119.147 105.113 119.245 105.198 119.315C105.284 119.384 105.392 119.42 105.502 119.416Z" fill="#8CB4F4"/>
<path d="M59.6096 86.6379L54.6392 62.0907C54.001 58.7674 56.7546 55.7282 60.3307 55.8102L69.9173 56.0287C71.5287 56.0657 73.0863 56.6158 74.3635 57.599C75.6407 58.5823 76.5709 59.9474 77.0188 61.4957L84.2903 86.6379H59.6096Z" fill="#8CB4F4"/>
<path d="M62.6175 86.6379L57.647 62.0907C57.0088 58.7704 59.7624 55.7282 63.3377 55.8102L72.9244 56.0287C74.5358 56.0657 76.0934 56.6158 77.3706 57.599C78.6478 58.5823 79.578 59.9473 80.0259 61.4957L87.2981 86.6379H62.6175Z" fill="#8CB4F4"/>
<path d="M98.9264 91.1133H60.9987C60.6313 91.1133 60.2789 90.9673 60.0191 90.7075C59.7593 90.4477 59.6133 90.0953 59.6133 89.7279V86.6365H98.9264C99.1084 86.6364 99.2886 86.6721 99.4568 86.7417C99.6249 86.8113 99.7777 86.9133 99.9065 87.042C100.035 87.1706 100.137 87.3234 100.207 87.4915C100.277 87.6597 100.313 87.8399 100.312 88.0219V89.7279C100.313 89.9099 100.277 90.0901 100.207 90.2582C100.137 90.4264 100.035 90.5791 99.9065 90.7078C99.7777 90.8364 99.6249 90.9385 99.4568 91.008C99.2886 91.0776 99.1084 91.1134 98.9264 91.1133Z" fill="#8CB4F4"/>
<path d="M78.8002 91.1133H102.978C103.594 91.1133 104.094 90.6135 104.094 89.9971V87.7527C104.094 87.1362 103.594 86.6365 102.978 86.6365H78.8002C78.1837 86.6365 77.684 87.1362 77.684 87.7527V89.9971C77.684 90.6135 78.1837 91.1133 78.8002 91.1133Z" fill="#8CB4F4"/>
<path d="M48.2945 86.3175V87.1549C48.2945 87.4479 48.1991 87.6873 48.0835 87.6873H17.5235C17.4072 87.6873 17.3125 87.4479 17.3125 87.1549V86.3175C17.3125 86.0245 17.4072 85.7852 17.5235 85.7852H48.0835C48.202 85.7852 48.2945 86.0245 48.2945 86.3175Z" fill="#9ABFE2"/>
<path d="M48.297 86.3175V87.1549C48.297 87.4479 48.2098 87.6873 48.1031 87.6873H23.8416C23.7357 87.6873 23.6484 87.4479 23.6484 87.1549V86.3175C23.6484 86.0245 23.7357 85.7852 23.8416 85.7852H48.1031C48.2098 85.7852 48.297 86.0245 48.297 86.3175Z" fill="#BAD4F4"/>
<path d="M40.563 87.6875H18.8672V119.311H40.563V87.6875Z" fill="#C8DBF4"/>
<path d="M46.6411 87.6875H24.9453V119.311H46.6411V87.6875Z" fill="#DFEBFD"/>
<path d="M45.4736 117.566H26.1094V88.582H45.4736V117.566ZM26.3189 117.356H45.2648V88.7908H26.3189V117.356Z" fill="#B7D3F3"/>
<path d="M45.3742 98.168H26.2188V98.3768H45.3742V98.168Z" fill="#B7D3F3"/>
<path d="M45.3742 107.941H26.2188V108.15H45.3742V107.941Z" fill="#B7D3F3"/>
<path d="M37.759 90.4481H34.2045C34.1213 90.4479 34.0416 90.4148 33.9828 90.356C33.924 90.2972 33.8908 90.2174 33.8906 90.1342C33.8908 90.051 33.924 89.9713 33.9828 89.9125C34.0416 89.8537 34.1213 89.8205 34.2045 89.8203H37.759C37.8421 89.8207 37.9216 89.8539 37.9803 89.9127C38.0389 89.9715 38.072 90.0512 38.0722 90.1342C38.072 90.2173 38.0389 90.2969 37.9803 90.3557C37.9216 90.4145 37.8421 90.4477 37.759 90.4481Z" fill="#B7D3F3"/>
<path d="M37.759 100.01H34.2045C34.1214 100.01 34.0417 99.9769 33.9828 99.9182C33.924 99.8595 33.8908 99.7798 33.8906 99.6967C33.8908 99.6135 33.924 99.5338 33.9828 99.475C34.0416 99.4161 34.1213 99.383 34.2045 99.3828H37.759C37.8421 99.383 37.9218 99.4162 37.9805 99.475C38.0392 99.5339 38.0722 99.6136 38.0722 99.6967C38.072 99.7797 38.0389 99.8593 37.9802 99.9179C37.9215 99.9766 37.842 100.01 37.759 100.01Z" fill="#B7D3F3"/>
<path d="M37.759 109.971H34.2045C34.1213 109.971 34.0416 109.937 33.9828 109.879C33.924 109.82 33.8908 109.74 33.8906 109.657C33.8908 109.574 33.924 109.494 33.9828 109.435C34.0417 109.377 34.1214 109.344 34.2045 109.344H37.759C37.842 109.344 37.9215 109.377 37.9802 109.436C38.0389 109.494 38.072 109.574 38.0722 109.657C38.0722 109.74 38.0392 109.82 37.9805 109.879C37.9218 109.937 37.8421 109.971 37.759 109.971Z" fill="#B7D3F3"/>
<path d="M133.47 15.2578H119.718C119.084 15.2578 118.57 15.7716 118.57 16.4053V29.6792C118.57 30.313 119.084 30.8267 119.718 30.8267H133.47C134.104 30.8267 134.618 30.313 134.618 29.6792V16.4053C134.618 15.7716 134.104 15.2578 133.47 15.2578Z" fill="#C0D8FB"/>
<path d="M132.875 15.9336H120.314C119.735 15.9336 119.266 16.403 119.266 16.982V29.1053C119.266 29.6843 119.735 30.1537 120.314 30.1537H132.875C133.454 30.1537 133.923 29.6843 133.923 29.1053V16.982C133.923 16.403 133.454 15.9336 132.875 15.9336Z" fill="#DFEBFD"/>
<path d="M126.59 17.6885C126.774 17.6885 126.923 17.5397 126.923 17.356C126.923 17.1723 126.774 17.0234 126.59 17.0234C126.407 17.0234 126.258 17.1723 126.258 17.356C126.258 17.5397 126.407 17.6885 126.59 17.6885Z" fill="#B7D3F3"/>
<path d="M128.941 17.823C128.973 17.7656 129.021 17.7189 129.079 17.6889C129.138 17.6589 129.204 17.647 129.269 17.6546C129.335 17.6621 129.396 17.6889 129.446 17.7315C129.496 17.774 129.533 17.8305 129.551 17.8937C129.569 17.957 129.568 18.0241 129.548 18.0867C129.527 18.1493 129.489 18.2046 129.438 18.2454C129.386 18.2863 129.324 18.311 129.258 18.3163C129.193 18.3217 129.127 18.3075 129.07 18.2756C129.031 18.2544 128.998 18.2258 128.97 18.1916C128.943 18.1573 128.923 18.1181 128.911 18.0761C128.899 18.034 128.896 17.99 128.901 17.9466C128.906 17.9032 128.919 17.8612 128.941 17.823Z" fill="#B7D3F3"/>
<path d="M131.238 19.6509C131.294 19.6152 131.358 19.5967 131.424 19.5977C131.49 19.5987 131.554 19.6192 131.608 19.6567C131.662 19.6941 131.704 19.7467 131.728 19.8079C131.752 19.8691 131.758 19.9361 131.744 20.0004C131.73 20.0647 131.697 20.1235 131.65 20.1692C131.603 20.215 131.543 20.2457 131.478 20.2574C131.413 20.2692 131.347 20.2615 131.286 20.2353C131.226 20.209 131.175 20.1655 131.139 20.1102C131.115 20.0735 131.099 20.0326 131.091 19.9896C131.083 19.9467 131.084 19.9026 131.093 19.86C131.103 19.8173 131.12 19.7769 131.145 19.741C131.17 19.7051 131.202 19.6745 131.238 19.6509Z" fill="#B7D3F3"/>
<path d="M132.379 22.4766C132.445 22.4766 132.51 22.4961 132.564 22.5327C132.619 22.5692 132.662 22.6212 132.687 22.682C132.712 22.7428 132.718 22.8097 132.706 22.8743C132.693 22.9388 132.661 22.9981 132.614 23.0445C132.568 23.091 132.508 23.1226 132.444 23.1354C132.379 23.1481 132.312 23.1414 132.252 23.1161C132.191 23.0909 132.139 23.0481 132.103 22.9933C132.066 22.9385 132.047 22.8742 132.047 22.8084C132.047 22.7647 132.055 22.7215 132.072 22.6812C132.089 22.6409 132.113 22.6043 132.144 22.5735C132.175 22.5427 132.212 22.5182 132.252 22.5016C132.293 22.485 132.336 22.4765 132.379 22.4766Z" fill="#B7D3F3"/>
<path d="M131.801 25.7576C131.847 25.804 131.879 25.8632 131.892 25.9275C131.904 25.9918 131.898 26.0585 131.873 26.1191C131.848 26.1797 131.805 26.2315 131.75 26.2679C131.696 26.3043 131.632 26.3238 131.566 26.3238C131.501 26.3238 131.436 26.3043 131.382 26.2679C131.327 26.2315 131.285 26.1797 131.26 26.1191C131.235 26.0585 131.228 25.9918 131.241 25.9275C131.253 25.8632 131.285 25.804 131.331 25.7576C131.362 25.7267 131.399 25.7022 131.439 25.6855C131.479 25.6688 131.523 25.6602 131.566 25.6602C131.61 25.6602 131.653 25.6688 131.693 25.6855C131.734 25.7022 131.77 25.7267 131.801 25.7576Z" fill="#B7D3F3"/>
<path d="M129.708 27.8478C129.755 27.8943 129.787 27.9536 129.799 28.0181C129.812 28.0826 129.806 28.1494 129.78 28.2102C129.755 28.2709 129.713 28.3229 129.658 28.3594C129.603 28.3959 129.539 28.4154 129.473 28.4154C129.407 28.4154 129.343 28.3959 129.288 28.3594C129.234 28.3229 129.191 28.2709 129.166 28.2102C129.141 28.1494 129.134 28.0826 129.147 28.0181C129.16 27.9536 129.191 27.8943 129.238 27.8478C129.269 27.8168 129.305 27.7922 129.346 27.7754C129.386 27.7586 129.429 27.75 129.473 27.75C129.517 27.75 129.56 27.7586 129.601 27.7754C129.641 27.7922 129.678 27.8168 129.708 27.8478Z" fill="#B7D3F3"/>
<path d="M126.258 28.9263C126.258 28.8605 126.277 28.7962 126.314 28.7415C126.35 28.6868 126.402 28.6441 126.463 28.619C126.524 28.5938 126.591 28.5873 126.656 28.6002C126.72 28.6131 126.779 28.6448 126.826 28.6914C126.872 28.738 126.904 28.7973 126.917 28.8619C126.929 28.9264 126.923 28.9933 126.897 29.0541C126.872 29.1148 126.829 29.1667 126.775 29.2032C126.72 29.2396 126.655 29.259 126.59 29.2589C126.546 29.2589 126.503 29.2503 126.462 29.2335C126.422 29.2168 126.386 29.1923 126.355 29.1614C126.324 29.1305 126.299 29.0939 126.283 29.0535C126.266 29.0132 126.258 28.9699 126.258 28.9263Z" fill="#B7D3F3"/>
<path d="M124.232 17.823C124.2 17.7656 124.152 17.7189 124.094 17.6889C124.035 17.6589 123.969 17.647 123.904 17.6546C123.838 17.6621 123.777 17.6889 123.727 17.7315C123.677 17.774 123.64 17.8305 123.622 17.8937C123.604 17.957 123.605 18.0241 123.625 18.0867C123.645 18.1493 123.684 18.2046 123.735 18.2454C123.787 18.2863 123.849 18.311 123.915 18.3163C123.98 18.3217 124.046 18.3075 124.103 18.2756C124.18 18.2326 124.237 18.1608 124.261 18.076C124.286 17.9911 124.275 17.9002 124.232 17.823Z" fill="#B7D3F3"/>
<path d="M121.935 19.6509C121.88 19.6152 121.815 19.5967 121.749 19.5977C121.683 19.5987 121.619 19.6192 121.565 19.6567C121.511 19.6941 121.469 19.7467 121.445 19.8079C121.421 19.8691 121.415 19.9361 121.429 20.0004C121.443 20.0647 121.476 20.1235 121.523 20.1692C121.57 20.215 121.63 20.2457 121.695 20.2574C121.76 20.2692 121.827 20.2615 121.887 20.2353C121.947 20.209 121.998 20.1655 122.034 20.1102C122.082 20.0361 122.098 19.9461 122.079 19.86C122.061 19.7739 122.009 19.6987 121.935 19.6509Z" fill="#B7D3F3"/>
<path d="M120.793 22.4766C120.728 22.4766 120.663 22.4961 120.609 22.5327C120.554 22.5692 120.511 22.6212 120.486 22.682C120.461 22.7428 120.454 22.8097 120.467 22.8743C120.48 22.9388 120.512 22.9981 120.559 23.0445C120.605 23.091 120.665 23.1226 120.729 23.1354C120.794 23.1481 120.861 23.1414 120.921 23.1161C120.982 23.0909 121.034 23.0481 121.07 22.9933C121.107 22.9385 121.126 22.8742 121.126 22.8084C121.126 22.7203 121.091 22.6359 121.028 22.5737C120.966 22.5115 120.882 22.4766 120.793 22.4766Z" fill="#B7D3F3"/>
<path d="M121.378 25.754C121.332 25.8004 121.3 25.8596 121.288 25.9239C121.275 25.9882 121.281 26.0549 121.307 26.1155C121.332 26.1761 121.374 26.2279 121.429 26.2643C121.483 26.3007 121.547 26.3202 121.613 26.3202C121.679 26.3202 121.743 26.3007 121.797 26.2643C121.852 26.2279 121.894 26.1761 121.92 26.1155C121.945 26.0549 121.951 25.9882 121.939 25.9239C121.926 25.8596 121.894 25.8004 121.848 25.754C121.817 25.723 121.781 25.6984 121.74 25.6817C121.7 25.6649 121.657 25.6562 121.613 25.6562C121.569 25.6562 121.526 25.6649 121.486 25.6817C121.446 25.6984 121.409 25.723 121.378 25.754Z" fill="#B7D3F3"/>
<path d="M123.7 28.4151C123.883 28.4151 124.032 28.2662 124.032 28.0826C124.032 27.8989 123.883 27.75 123.7 27.75C123.516 27.75 123.367 27.8989 123.367 28.0826C123.367 28.2662 123.516 28.4151 123.7 28.4151Z" fill="#B7D3F3"/>
<path d="M126.5 22.8091C126.5 22.7433 126.52 22.679 126.556 22.6244C126.593 22.5697 126.645 22.527 126.705 22.5019C126.766 22.4767 126.833 22.4701 126.897 22.483C126.962 22.4958 127.021 22.5275 127.068 22.574C127.114 22.6205 127.146 22.6797 127.159 22.7442C127.172 22.8087 127.165 22.8756 127.14 22.9364C127.115 22.9971 127.072 23.0491 127.017 23.0856C126.963 23.1222 126.898 23.1417 126.833 23.1417C126.744 23.1417 126.66 23.1066 126.597 23.0443C126.535 22.9819 126.5 22.8973 126.5 22.8091Z" fill="#B7D3F3"/>
<path d="M126.88 18.6562H126.789V22.8095H126.88V18.6562Z" fill="#B7D3F3"/>
<path d="M128.913 20.9709L126.711 22.6992L126.879 22.9133L129.081 21.185L128.913 20.9709Z" fill="#B7D3F3"/>
<path d="M92.6511 81.499C90.5991 85.0706 88.0184 86.4485 88.0184 86.4485H77.2812C77.2812 86.4485 94.2162 78.7752 92.6511 81.499Z" fill="#233862"/>
<path d="M105.896 116.977C105.781 118.103 107.347 118.393 109.164 118.504C110.981 118.615 110.432 118.981 112.915 119.459C115.398 119.937 116.407 119.266 116.592 118.931C116.755 118.633 115.601 118.155 114.373 117.613C114.218 117.545 114.063 117.476 113.909 117.406C112.526 116.78 111.759 115.526 110.688 114.359C109.674 113.254 108.738 109.736 108.738 109.736L105.359 108.977C105.359 108.977 106.277 112.14 106.592 113.49C106.778 114.284 106.482 115.166 106.219 115.837C106.08 116.206 105.937 116.58 105.896 116.977Z" fill="#A56F4A"/>
<path d="M109.165 118.507C110.982 118.617 110.432 118.984 112.915 119.462C115.398 119.94 116.408 119.268 116.592 118.934C116.755 118.635 115.602 118.157 114.373 117.616L114.354 117.637C113.119 117.979 111.815 117.981 110.579 117.641C108.939 117.176 107.353 116.174 106.221 115.844C106.08 116.209 105.938 116.583 105.897 116.979C105.781 118.106 107.348 118.397 109.165 118.507Z" fill="#0F2549"/>
<path d="M100.775 77.8426C98.9576 76.5668 86.9334 74.2911 80.7968 73.6327L74.0115 67.7422C74.0115 67.7422 68.238 76.2932 68.1955 82.8346C68.1747 85.8843 69.5794 86.19 69.5794 86.19C69.5794 86.19 91.3215 86.3518 92.2744 86.4495C93.8343 86.6106 95.8915 90.4968 96.406 94.0364C96.9205 97.5759 105.988 111.973 105.988 111.973C105.988 111.973 107.879 112.579 108.753 112.527C109.693 112.472 110.129 112.155 110.129 112.155C110.129 112.155 104.874 80.7215 100.775 77.8426Z" fill="#233862"/>
<path d="M100.271 116.977C100.156 118.103 101.722 118.393 103.539 118.504C105.356 118.615 104.803 118.981 107.29 119.459C109.777 119.937 110.782 119.266 110.966 118.931C111.13 118.633 109.976 118.155 108.748 117.613C108.593 117.545 108.438 117.476 108.284 117.406C106.901 116.78 106.134 115.526 105.063 114.359C104.049 113.254 103.113 109.736 103.113 109.736L99.7344 108.977C99.7344 108.977 100.652 112.14 100.967 113.49C101.153 114.284 100.857 115.166 100.594 115.837C100.454 116.206 100.312 116.58 100.271 116.977Z" fill="#A56F4A"/>
<path d="M103.54 118.507C105.357 118.617 104.804 118.984 107.29 119.462C109.777 119.94 110.783 119.268 110.966 118.934C111.13 118.635 109.977 118.157 108.748 117.616L108.729 117.637C107.494 117.979 106.19 117.981 104.954 117.641C103.314 117.176 101.728 116.174 100.596 115.844C100.454 116.209 100.313 116.583 100.272 116.979C100.156 118.106 101.723 118.397 103.54 118.507Z" fill="#233862"/>
<path d="M95.1077 77.8417C93.5284 76.7329 88.7787 75.8732 83.5361 75.2319C82.8279 75.1453 82.1627 74.8459 81.6282 74.3733C81.0937 73.9008 80.7151 73.2772 80.5424 72.5849L68.3475 67.7383C68.3475 67.7383 62.5747 76.2893 62.5315 82.8307C62.5106 85.8804 63.9154 86.1861 63.9154 86.1861C63.9154 86.1861 85.6574 86.3479 86.6104 86.4456C88.1702 86.6067 90.2282 90.4929 90.7419 94.0325C91.2557 97.572 100.323 111.968 100.323 111.968C100.323 111.968 102.214 112.574 103.087 112.523C104.028 112.468 104.463 112.15 104.463 112.15C104.463 112.15 99.2087 80.7206 95.1077 77.8417Z" fill="#2B478B"/>
<path d="M78.7873 32.2195C77.1111 31.3389 74.5618 31.2203 74.1472 31.1644C69.1902 30.4985 66.2069 37.7014 66.0309 39.8839C65.7081 43.9103 63.58 44.5203 60.5878 47.042C54.5817 52.0937 56.3429 57.9641 59.6274 60.1458C61.5974 61.4544 65.0706 60.1458 65.0706 60.1458C65.1198 60.1801 74.57 54.863 79.228 52.298C86.2087 51.3026 83.0576 34.4623 78.7873 32.2195Z" fill="#233862"/>
<path d="M77.7532 49.8147C77.7756 49.8258 75.5506 50.8377 73.9452 50.3068C72.4346 49.8094 71.1044 47.5352 71.1252 47.5315C71.7814 47.4368 72.4473 46.7896 72.6337 42.957L72.9237 43.0316L77.8069 44.2641C77.8069 44.2641 77.6138 45.8106 77.534 47.2728C77.4654 48.5009 77.4796 49.6708 77.7532 49.8147Z" fill="#A56F4A"/>
<path d="M77.808 44.2655C77.808 44.2655 77.808 44.5839 77.6253 46.0222C74.8664 45.3258 73.6473 44.4109 72.7891 43.3633L77.808 44.2655Z" fill="#68432A"/>
<path d="M78.8493 44.4596C78.8493 44.4596 72.3936 45.5109 71.8015 41.477C71.2095 37.4431 69.9762 34.8684 74.0727 34.0266C78.1693 33.1848 79.1983 34.6052 79.7232 35.9026C80.2481 37.2 80.5091 44.0793 78.8493 44.4596Z" fill="#A56F4A"/>
<path d="M78.8494 33.8633C78.8494 33.8633 75.9183 38.4908 73.3011 39.5869C70.6839 40.6829 69.3984 40.126 69.3984 40.126C70.1835 38.8343 70.6944 37.395 70.8994 35.8974C70.9429 35.5465 71.0794 35.2136 71.2948 34.9332C71.5102 34.6528 71.7967 34.435 72.1245 34.3025C74.0028 33.5479 77.6377 32.3616 78.8494 33.8633Z" fill="#233862"/>
<path d="M76.2812 34.3116C76.2812 34.3116 77.9962 35.1922 78.7068 36.0176C79.3898 36.8147 80.1787 38.9763 80.1235 39.9471C80.1235 39.9471 80.9713 35.2951 79.2056 33.6957C77.3319 32.0001 76.2812 34.3116 76.2812 34.3116Z" fill="#233862"/>
<path d="M82.9173 59.6628C82.7219 72.786 82.8636 70.0421 81.426 71.2873C81.08 71.5855 80.1085 71.766 78.8282 71.8502C74.8018 72.1172 67.7324 71.455 67.4632 70.7109C66.5349 68.1384 67.1903 67.3391 66.4193 63.3999C66.338 62.9809 66.2381 62.5275 66.1211 62.0339C65.4753 59.3287 64.8475 58.4079 67.1374 54.0623C69.2147 50.1253 71.6574 46.9265 71.8513 47.0421C77.331 50.2953 77.5181 47.5685 77.5181 47.5685C77.5181 47.5685 83.0135 53.2607 82.9173 59.6628Z" fill="white"/>
<path d="M77.5156 47.5664C77.5156 47.5664 83.1243 48.5171 83.7864 50.9449C84.4486 53.3727 88.3445 67.6472 88.3445 67.6472C88.3445 67.6472 85.4783 68.1624 84.154 66.8382C82.8298 65.5139 79.546 54.5523 79.546 54.5523L77.5156 47.5664Z" fill="white"/>
<path d="M78.8308 71.8479C74.8043 72.1149 67.7349 71.4528 67.4658 70.7086C66.5374 68.1362 67.1929 67.3368 66.4219 63.3976L68.3605 57.9336C68.3605 57.9336 68.0399 64.0187 69.8347 65.6189C71.6294 67.219 77.1822 68.7088 78.0546 70.0457C78.4736 70.6877 78.7502 71.3312 78.8308 71.8479Z" fill="#EBF3FF"/>
<path d="M74.2188 69.2902C74.2188 69.2902 78.1878 68.4067 78.8283 68.7586C79.4688 69.1105 81.0346 70.3938 81.23 70.8404C81.4253 71.2871 79.8043 70.5012 79.2772 70.3595C78.9349 70.2678 78.0357 70.5832 77.5905 70.7323C75.7175 71.3564 74.5692 71.035 74.5692 71.035L74.2188 69.2902Z" fill="#A56F4A"/>
<path d="M71.8496 47.0391C71.8496 47.0391 66.232 47.3671 64.3865 49.9403C61.7894 53.5634 56.6371 69.0018 59.5898 71.0605C62.9154 73.3795 74.7263 71.6667 74.7263 71.6667C74.7263 71.6667 75.1192 69.8302 74.5719 68.9414C74.0246 68.0526 65.1403 66.618 64.7295 66.2079C64.3186 65.7978 69.855 58.211 69.855 56.9807C69.855 55.7503 71.8496 47.0391 71.8496 47.0391Z" fill="white"/>
<path d="M79.0234 69.8633C79.0234 69.8633 79.8548 70.9355 80.1277 71.0638C80.4006 71.192 80.5751 71.1599 80.5751 71.1599L80.0144 70.1511L79.0234 69.8633Z" fill="#A56F4A"/>
<path d="M78.8281 68.7617L81.2462 69.9361C81.2462 69.9361 81.1433 70.1046 80.8458 70.0904C80.5483 70.0763 79.7975 69.8026 79.7975 69.8026L78.8281 68.7617Z" fill="#A56F4A"/>
<path d="M87.7386 71.5432H76.5078C76.5078 71.3059 76.6021 71.0783 76.7699 70.9105C76.9377 70.7427 77.1653 70.6484 77.4026 70.6484H87.7386V71.5432Z" fill="#ED7D2B"/>
<path d="M87.7067 59.3125H105.07L100.905 71.5439H83.4297L87.7067 59.3125Z" fill="#ED7D2B"/>
<path d="M105.328 59.3125L101.163 71.5439H83.6875L87.9645 59.3125H105.328Z" fill="#F99746"/>
<path d="M95.9668 65.315C95.8594 65.7826 95.3926 66.1613 94.9229 66.1613C94.4531 66.1613 94.1646 65.7826 94.2727 65.315C94.3808 64.8475 94.8468 64.4688 95.3166 64.4688C95.7863 64.4688 96.0779 64.8475 95.9668 65.315Z" fill="white"/>
<path d="M148.718 71.543H72.6262C72.3063 71.543 72.0469 71.8024 72.0469 72.1223V73.715C72.0469 74.035 72.3063 74.2944 72.6262 74.2944H148.718C149.038 74.2944 149.297 74.035 149.297 73.715V72.1223C149.297 71.8024 149.038 71.543 148.718 71.543Z" fill="#182D4F"/>
<path d="M150.582 119.622H150.615C150.707 119.611 150.796 119.583 150.876 119.538C150.957 119.494 151.028 119.433 151.085 119.361C151.143 119.289 151.185 119.206 151.21 119.117C151.235 119.028 151.243 118.935 151.232 118.844L144.451 72.9453L141.969 73.0199L149.947 119.167C149.976 119.31 150.057 119.436 150.175 119.52C150.293 119.604 150.439 119.641 150.582 119.622Z" fill="#182D4F"/>
<path d="M70.0762 119.622H70.0434C69.9517 119.611 69.863 119.583 69.7823 119.538C69.7016 119.494 69.6306 119.433 69.5732 119.361C69.5159 119.289 69.4735 119.206 69.4483 119.117C69.4232 119.028 69.4159 118.935 69.4268 118.844L76.2076 72.9453L78.6898 73.0199L70.7115 119.167C70.6834 119.31 70.602 119.436 70.4839 119.52C70.3659 119.605 70.22 119.641 70.0762 119.622Z" fill="#182D4F"/>
<path d="M85.7709 119.622H85.7381C85.6464 119.611 85.5577 119.583 85.4771 119.538C85.3964 119.493 85.3254 119.433 85.2681 119.361C85.2109 119.289 85.1685 119.206 85.1435 119.117C85.1184 119.028 85.1112 118.935 85.1222 118.844L91.9023 72.9453L94.3852 73.0199L86.4069 119.167C86.3785 119.31 86.2969 119.436 86.1787 119.52C86.0606 119.605 85.9148 119.641 85.7709 119.622Z" fill="#182D4F"/>
<path d="M211.026 119.188H0.287816C0.12886 119.188 0 119.316 0 119.475V119.712C0 119.871 0.12886 120 0.287816 120H211.026C211.185 120 211.314 119.871 211.314 119.712V119.475C211.314 119.316 211.185 119.188 211.026 119.188Z" fill="#2E3552"/>
<path d="M125.781 119.584H139.237C139.884 118.794 139.646 115.88 139.548 114.929C139.527 114.737 139.514 114.625 139.514 114.625C139.514 114.625 134.919 110.95 134.287 113.764C134.268 113.852 134.245 113.938 134.22 114.023C133.425 116.655 129.858 117.852 127.798 118.185C126.459 118.402 125.965 119.098 125.781 119.584Z" fill="#233862"/>
<path d="M162.493 75.8633C162.007 75.8633 139.444 80.0993 135.713 84.7192C133.848 87.0307 133.57 113.681 133.57 113.681C133.57 113.681 135.877 116.54 140.859 114.88C140.859 114.88 144.513 96.6442 144.242 91.1131C144.167 89.5838 159.657 90.8894 162.493 90.1579C165.329 89.4264 172.255 83.2563 170.728 80.2521C169.201 77.2479 162.493 75.8633 162.493 75.8633Z" fill="#233862"/>
<path d="M135.807 69.3359C135.807 69.3359 131.258 69.3971 130.179 69.8579C129.1 70.3187 126.92 71.3775 127.504 71.54C128.089 71.7026 130.877 71.4737 131.479 71.5654C132.082 71.6571 132.821 71.54 133.194 71.54H135.282L135.807 69.3359Z" fill="#A56F4A"/>
<path d="M130.488 58.4163C130.488 58.4163 128.936 57.3075 127.431 57.092C126.572 56.969 125.736 56.8162 125.231 56.638C123.84 56.1481 121.055 53.6472 121.269 53.3571C121.941 52.4169 125.192 54.407 125.758 54.193C126.325 53.979 124.669 52.8016 125.245 52.3878C125.543 52.1716 126.25 53.2557 126.825 53.3646C127.604 53.5137 128.213 54.6113 128.447 54.6687C128.903 54.7806 130.901 56.2666 130.901 56.2666L130.488 58.4163Z" fill="#A56F4A"/>
<path d="M160.249 45.4648C160.249 45.4648 156.785 46.5386 153.372 55.9381C149.958 65.3376 148.661 65.8454 147.421 66.2145C146.18 66.5835 135.289 68.7496 135.289 68.7496V71.5391H152.07C152.07 71.5391 158.363 65.5531 160.249 61.5266C162.136 57.5002 160.249 45.4648 160.249 45.4648Z" fill="#E2AE19"/>
<path d="M119.828 119.584H133.283C133.93 118.794 133.692 115.88 133.594 114.929C133.574 114.737 133.561 114.625 133.561 114.625C133.561 114.625 128.965 110.95 128.334 113.764C128.315 113.852 128.292 113.938 128.267 114.023C127.471 116.655 123.905 117.852 121.845 118.185C120.506 118.402 120.011 119.098 119.828 119.584Z" fill="#1B3051"/>
<path d="M155.844 75.8633C155.358 75.8633 132.796 80.0993 129.064 84.7192C127.2 87.0307 126.922 113.681 126.922 113.681C126.922 113.681 129.229 116.54 134.21 114.88C134.21 114.88 137.864 96.6442 137.593 91.1131C137.519 89.5838 153.009 90.8894 155.844 90.1579C158.68 89.4264 165.607 83.2563 164.08 80.2521C162.553 77.2479 155.844 75.8633 155.844 75.8633Z" fill="#2B478B"/>
<path d="M157.256 48.4463C158.879 48.3121 160.581 47.8796 162.051 47.4024C163.89 46.8059 165.372 45.9335 164.417 44.2536C163.537 42.7049 162.112 39.2444 162.209 36.3789L158.788 39.1378L156.463 41.0108C156.463 41.0108 156.473 42.1144 156.727 44.0493C156.774 44.402 156.827 44.783 156.891 45.1894C156.917 45.3503 156.894 45.5152 156.826 45.6634C156.758 45.8115 156.648 45.9364 156.51 46.0222C156.492 46.0327 156.475 46.0439 156.457 46.055C155.302 46.7783 155.896 48.5552 157.256 48.4463Z" fill="#A56F4A"/>
<path d="M156.464 40.5526C156.464 40.5526 156.345 40.9537 156.549 42.4338C158.621 42.096 160.559 40.4437 160.559 40.4437C159.504 40.1537 159.12 39.0143 158.334 39.1202L156.464 40.5526Z" fill="#68432A"/>
<path d="M154.548 40.8905C154.548 40.8905 162.517 42.2147 163.265 37.2368C164.013 32.259 165.546 29.0803 160.489 28.0245C155.432 26.9687 154.156 28.7187 153.502 30.3188C152.848 31.9189 152.493 40.4177 154.548 40.8905Z" fill="#A56F4A"/>
<path d="M152.329 28.1168C151.987 29.315 152.903 30.7742 154.44 31.2552C156.723 31.968 156.219 34.7679 157.245 34.7291C158.272 34.6903 158.687 33.12 159.604 34.3757C160.387 35.4464 158.953 36.7155 159.051 37.303C159.221 38.3111 160.8 40.3736 162.222 40.2699C163.645 40.1663 166.309 33.4041 165.775 31.3118C165.242 29.2196 163.113 27.0132 161.097 26.709C159.082 26.4048 156.281 27.2757 155.635 27.2757C154.988 27.2757 152.518 27.4696 152.329 28.1168Z" fill="#2B478B"/>
<path d="M170.839 52.3722C169.687 47.7358 166.503 42.8705 164.352 42.875C160.684 42.8817 155.41 43.8495 153.281 49.1018C151.715 52.9702 149.621 75.2223 151.985 76.8045C157.389 80.4223 169.915 87.8079 172.14 80.2762C174.178 73.3761 172.838 60.4184 170.839 52.3722Z" fill="#FFC727"/>
<path d="M161.926 47.7562C161.683 47.1229 161.295 46.5553 160.793 46.0989C160.292 45.6425 159.69 45.31 159.036 45.128C158.383 44.946 157.696 44.9196 157.03 45.0508C156.365 45.1821 155.739 45.4674 155.204 45.8839C153.959 46.8532 152.434 48.2319 150.593 50.1929C143.747 57.4823 142.356 57.4375 141.07 57.2869C139.785 57.1363 128.922 54.8308 128.922 54.8308C128.554 55.1214 128.252 55.4876 128.038 55.9045C127.601 56.7903 127.821 57.3958 127.821 57.3958C127.395 57.1214 131.671 60.0689 133.8 61.244C136.611 62.7957 140.846 64.2512 142.533 64.8037C143.011 64.9601 143.527 64.9522 144 64.7813C146.504 63.8791 154.912 60.5908 161.756 54.8845C163.559 53.3783 162.897 50.2802 161.926 47.7562Z" fill="#FFC727"/>
<path d="M164.717 42.9184L163.887 41.0469C163.887 41.0469 156.453 41.6531 155.203 45.8846C155.204 45.8846 160.965 43.0086 164.717 42.9184Z" fill="white"/>
<path d="M182.761 119.415H182.813C183.233 119.408 183.559 119.065 183.517 118.67L180.717 90.7031L178.273 90.9216L182.294 119.038C182.313 119.147 182.371 119.245 182.457 119.315C182.543 119.384 182.651 119.42 182.761 119.415Z" fill="#8CB4F4"/>
<path d="M168.347 119.415H168.399C168.819 119.408 169.144 119.065 169.103 118.67L166.303 90.7031L163.859 90.9216L167.881 119.038C167.899 119.147 167.957 119.245 168.043 119.315C168.129 119.384 168.237 119.42 168.347 119.415Z" fill="#8CB4F4"/>
<path d="M141.29 119.415H141.239C140.82 119.408 140.493 119.065 140.535 118.67L143.335 90.7031L145.778 90.9216L141.758 119.037C141.739 119.146 141.681 119.245 141.595 119.315C141.509 119.384 141.401 119.42 141.29 119.415Z" fill="#73A2E5"/>
<path d="M181.969 86.7421L184.627 63.3842C184.975 60.0176 183.849 56.7219 178.991 56.4669L170.446 55.945C165.381 55.7362 163.094 59.9513 162.453 63.1963L157.383 88.8731L181.969 86.7421Z" fill="#8CB4F4"/>
<path d="M142.62 86.6367H181.933V89.7281C181.933 90.0956 181.787 90.4479 181.527 90.7078C181.267 90.9676 180.915 91.1135 180.547 91.1135H142.62C142.252 91.1135 141.9 90.9676 141.64 90.7078C141.38 90.4479 141.234 90.0956 141.234 89.7281V88.0221C141.234 87.6547 141.38 87.3023 141.64 87.0425C141.9 86.7827 142.252 86.6367 142.62 86.6367Z" fill="#73A2E5"/>
<path d="M158.459 86.6367H181.929V90.0376C181.93 90.1792 181.902 90.3195 181.848 90.4505C181.795 90.5814 181.715 90.7005 181.615 90.8008C181.515 90.9011 181.397 90.9807 181.266 91.035C181.135 91.0893 180.995 91.1173 180.853 91.1173H158.459C158.173 91.1173 157.9 91.0039 157.698 90.8021C157.496 90.6003 157.383 90.3267 157.383 90.0413V87.7164C157.382 87.5748 157.41 87.4345 157.464 87.3035C157.517 87.1725 157.597 87.0535 157.697 86.9532C157.797 86.8529 157.915 86.7733 158.046 86.719C158.177 86.6647 158.317 86.6367 158.459 86.6367Z" fill="#8CB4F4"/>
</g>
<defs>
<clipPath id="clip0_1590_2861">
<rect width="211.314" height="120" fill="white"/>
</clipPath>
</defs>
</svg>
