<svg width="36" height="36" viewBox="0 0 36 36" fill="none" xmlns="http://www.w3.org/2000/svg">
<rect x="1.00626" y="0.713782" width="34.1323" height="34.1323" rx="9.52529" stroke="black" stroke-width="0.793774"/>
<path d="M21.3613 19.1906H21.0254V19.5265V29.1841H15.2988V19.5265V19.1906H14.9629H10.5V15.1596H14.9629H15.2988V14.8237V11.5317C15.2988 9.85341 16.0157 8.5732 17.2424 7.70091C18.4818 6.81962 20.2628 6.34178 22.3898 6.34178C24.1647 6.34178 25.8563 6.42529 26.624 6.4802V9.78492H24.5605C22.947 9.78492 22.0162 10.0668 21.5135 10.6155C21.0244 11.1494 21.0249 11.8562 21.0253 12.4231C21.0254 12.4396 21.0254 12.456 21.0254 12.4723V14.8237V15.1596H21.3613H26.4908L25.1197 19.1906H21.3613Z" fill="black" stroke="black" stroke-width="0.671833"/>
</svg>
