<svg width="483" height="34" viewBox="0 0 483 34" fill="none" xmlns="http://www.w3.org/2000/svg">
<rect x="0.843318" y="17.1793" width="213.313" height="0.35851" stroke="black" stroke-width="0.35851"/>
<path d="M240.86 13.1816C240.86 14.2296 240.727 15.1846 240.46 16.0466C240.2 16.9024 239.806 17.6404 239.279 18.2605C238.752 18.8745 238.091 19.3489 237.297 19.6837C236.504 20.0186 235.573 20.186 234.507 20.186C233.422 20.186 232.479 20.0186 231.679 19.6837C230.885 19.3489 230.225 18.8714 229.698 18.2512C229.177 17.6311 228.786 16.89 228.526 16.028C228.265 15.166 228.135 14.211 228.135 13.163C228.135 11.7615 228.364 10.5398 228.823 9.49799C229.288 8.44996 229.992 7.63759 230.935 7.06086C231.884 6.47793 233.08 6.18647 234.525 6.18647C235.939 6.18647 237.114 6.47483 238.051 7.05156C238.987 7.62828 239.688 8.44066 240.153 9.48869C240.624 10.5305 240.86 11.7615 240.86 13.1816ZM230.479 13.1816C230.479 14.2296 230.622 15.1381 230.907 15.9071C231.192 16.6699 231.629 17.259 232.218 17.6745C232.814 18.0838 233.577 18.2884 234.507 18.2884C235.443 18.2884 236.206 18.0838 236.795 17.6745C237.384 17.259 237.818 16.6699 238.097 15.9071C238.376 15.1381 238.516 14.2296 238.516 13.1816C238.516 11.5879 238.197 10.3414 237.558 9.44218C236.925 8.53678 235.914 8.08408 234.525 8.08408C233.595 8.08408 232.829 8.28873 232.228 8.69802C231.632 9.10731 231.192 9.69334 230.907 10.4561C230.622 11.2127 230.479 12.1212 230.479 13.1816ZM247.604 6.40041C248.776 6.40041 249.743 6.54305 250.506 6.82831C251.275 7.11357 251.846 7.54767 252.218 8.13059C252.596 8.71352 252.785 9.45458 252.785 10.3538C252.785 11.0235 252.661 11.5941 252.413 12.0654C252.165 12.5367 251.84 12.9273 251.436 13.2374C251.033 13.5475 250.602 13.7955 250.143 13.9816L254.004 20H251.483L248.199 14.549H246.013V20H243.781V6.40041H247.604ZM247.455 8.26082H246.013V12.7072H247.558C248.593 12.7072 249.344 12.515 249.809 12.1305C250.28 11.746 250.516 11.1786 250.516 10.4282C250.516 9.64063 250.264 9.0825 249.762 8.75383C249.266 8.42516 248.497 8.26082 247.455 8.26082Z" fill="black"/>
<rect x="268.179" y="17.1793" width="213.313" height="0.35851" stroke="black" stroke-width="0.35851"/>
</svg>
