<svg width="36" height="36" viewBox="0 0 36 36" fill="none" xmlns="http://www.w3.org/2000/svg">
<rect x="0.631262" y="0.713782" width="34.1323" height="34.1323" rx="9.52529" stroke="black" stroke-width="0.793774"/>
<path d="M24.3237 19.0328H18.6956V15.8295H28.2143C28.3295 16.3772 28.41 16.9154 28.41 17.6294C28.41 20.5965 27.3961 23.1094 25.6423 24.8794C23.8892 26.6486 21.3703 27.702 18.3096 27.702C12.4853 27.702 7.77189 23.0714 7.77189 17.3829C7.77189 11.6945 12.4853 7.06388 18.3096 7.06388C20.9966 7.06388 23.262 7.97189 25.0376 9.4751L22.5073 11.885C21.634 11.1708 20.2515 10.4386 18.3096 10.4386C14.4718 10.4386 11.341 13.5624 11.341 17.3937C11.341 21.2249 14.4718 24.3487 18.3096 24.3487C20.502 24.3487 22.0354 23.6018 23.0575 22.6059C24.0706 21.6189 24.5609 20.4078 24.715 19.4958L24.7933 19.0328H24.3237Z" fill="black" stroke="black" stroke-width="0.793774"/>
</svg>
