<svg width="36" height="36" viewBox="0 0 36 36" fill="none" xmlns="http://www.w3.org/2000/svg">
<rect x="1.38126" y="0.713782" width="34.1323" height="34.1323" rx="9.52529" stroke="black" stroke-width="0.793774"/>
<path d="M29.652 11.6554C30.175 11.5992 30.6967 11.4974 31.2171 11.3505C30.7703 11.8438 30.2759 12.2871 29.7336 12.681L29.5552 12.8106L29.5709 13.0304C29.5798 13.1547 29.5848 13.3515 29.5848 13.6273C29.5848 14.8779 29.4021 16.1277 29.0353 17.3777C28.6697 18.6236 28.1135 19.8213 27.3645 20.9714C26.6161 22.1206 25.7258 23.1362 24.6932 24.0192C23.6727 24.892 22.436 25.5938 20.9765 26.1205C19.5245 26.6446 17.9679 26.9081 16.304 26.9081C14.2344 26.9081 12.3076 26.4705 10.519 25.5948C12.6643 25.5104 14.5938 24.7994 16.2959 23.4649L17.1732 22.777L16.0585 22.7557C15.0993 22.7375 14.2477 22.4448 13.4916 21.8755C12.907 21.4353 12.4666 20.9051 12.1661 20.2817C12.2677 20.2872 12.367 20.29 12.4641 20.29C12.925 20.29 13.3805 20.231 13.8297 20.1133L13.809 19.3406C12.7867 19.1307 11.9457 18.6255 11.2736 17.8163C10.7296 17.1613 10.4076 16.4244 10.3062 15.5966C10.8539 15.8146 11.4298 15.9355 12.0321 15.9587L13.4389 16.0128L12.2675 15.2318C11.667 14.8315 11.1894 14.3092 10.8325 13.6594C10.4785 13.015 10.3011 12.3169 10.3011 11.5585C10.3011 10.9519 10.415 10.3819 10.6432 9.8453C11.8008 11.1531 13.174 12.2166 14.7602 13.0349C16.5328 13.9493 18.4311 14.4574 20.4513 14.5594L20.9658 14.5854L20.8597 14.0813C20.7855 13.729 20.7491 13.3894 20.7491 13.0617C20.7491 11.8371 21.1763 10.8045 22.0393 9.94151C22.9023 9.07851 23.9349 8.65128 25.1595 8.65128C26.4391 8.65128 27.5054 9.11208 28.383 10.0445L28.5326 10.2035L28.7471 10.1622C29.4888 10.0193 30.2017 9.79563 30.8852 9.49148C30.5256 10.0684 30.0337 10.5435 29.4054 10.9205L29.652 11.6554Z" fill="black" stroke="black" stroke-width="0.793774"/>
</svg>
